<svg xmlns="http://www.w3.org/2000/svg" version="1.1" xmlns:xlink="http://www.w3.org/1999/xlink" xmlns:svgjs="http://svgjs.dev/svgjs" viewBox="0 0 800 800" opacity="0.52"><defs><linearGradient x1="50%" y1="0%" x2="50%" y2="100%" id="ccchaos-grad"><stop stop-color="hsl(180, 69%, 40%)" stop-opacity="1" offset="0%"></stop><stop stop-color="hsl(180, 69%, 60%)" stop-opacity="1" offset="100%"></stop></linearGradient></defs><g stroke-width="2" stroke="url(#ccchaos-grad)" fill="none" stroke-linecap="round"><path d="M402.59 99.72C412.52 99.96 422.67 101.19 433.02 103.35 443.39 105.94 453.97 109.35 464.74 113.48 475.54 117.84 486.52 122.75 497.61 128.12 508.69 133.48 519.82 139.14 530.89 145.02 541.82 150.69 552.55 156.48 562.92 162.32 572.92 167.84 582.32 173.39 590.94 178.94 598.89 184.13 605.81 189.35 611.51 194.6 618.1 202.06 623.36 217.2 622.49 225.08 620.54 232.98 616.79 250.17 617.29 259.56 619.77 265.91 623.84 272.64 629.66 279.72 637.53 286.8 647 294.25 657.76 302.05 669.59 309.85 681.67 317.99 693.3 326.44 704.05 334.89 712.95 343.65 719.29 352.7 723.03 361.74 723.44 371.06 720.38 380.64 714.6 390.23 706.15 399.86 695.78 409.53 684.59 419.2 673.03 428.93 661.89 438.71 652.08 448.52 643.8 458.41 637.39 468.37 633.33 478.41 631.23 488.55 630.86 498.78 632.4 509.12 634.93 519.57 637.96 530.1 641.62 540.74 644.84 551.44 647.2 562.16 648.98 572.92 649.29 583.62 647.99 594.19 645.51 604.65 641.31 614.84 635.51 624.62 628.57 634.09 620.29 642.98 610.91 651.14 600.78 658.74 589.93 665.42 578.6 671.04 566.96 675.91 555.13 679.59 543.29 682.02 531.44 683.66 519.73 684.06 508.24 683.25 496.88 681.84 485.76 679.44 474.92 676.16 464.22 672.76 453.75 668.86 443.51 664.69 433.36 661.01 423.38 657.49 413.58 654.34 403.81 652.26 394.16 650.86 384.65 650.27 375.14 651.01 365.97 652.55 357.14 654.77 348.3 658.03 339.8 661.64 331.65 665.39 323.49 669.61 315.68 673.52 308.24 676.92 300.78 680.17 293.66 682.53 286.88 683.87 280.04 684.6 273.49 684.1 267.21 682.36 260.78 679.82 254.54 676.02 248.45 671.04 242.08 665.31 235.78 658.53 229.5 650.84 222.84 642.6 216.13 633.64 209.36 624.1 202.2 614.27 194.99 604.04 187.75 593.55 180.25 582.96 172.84 572.25 165.62 561.49 158.38 550.78 151.51 540.08 145.14 529.47 139.06 518.96 133.65 508.53 129.05 498.22 124.92 488.01 121.67 477.9 119.34 467.89 117.47 457.96 116.43 448.09 116.18 438.29 116.13 428.54 116.65 418.83 117.62 409.17 118.4 399.52 119.38 389.89 120.46 380.31 121.04 370.73 121.59 361.41 122.1 352.37 122.1 343.32 122.18 334.56 122.4 326.09 122.39 317.63 122.76 309.48 123.62 301.67 124.61 293.87 126.31 286.41 128.77 279.32 131.65 272.23 135.39 265.5 139.98 259.14 145.06 252.77 150.94 246.74 157.52 241.06 164.45 235.31 171.93 229.87 179.85 224.71 187.88 219.41 196.17 214.33 204.63 209.45 212.96 204.34 221.34 199.35 229.73 194.46 237.84 189.25 245.92 184.08 253.96 178.94 261.7 173.45 269.43 167.95 277.2 162.48 284.69 156.68 292.29 150.93 300.01 145.29 307.55 139.44 315.29 133.79 323.26 128.44 331.12 123.07 339.27 118.15 347.74 113.77 356.14 109.61 364.9 106.16 374.03 103.52 383.13 101.31 392.65 100.02 402.58 99.72" stroke-dasharray="8 2" transform="rotate(0, 400, 400)" opacity="0.05"></path><path d="M409.37 110.31C419.08 110.53 428.96 111.71 438.99 113.77 449.04 116.26 459.25 119.53 469.58 123.5 479.9 127.71 490.32 132.47 500.74 137.68 511.1 142.92 521.39 148.48 531.5 154.26 541.41 159.89 550.98 165.65 560.07 171.49 568.75 177.04 576.75 182.64 583.89 188.25 590.41 193.53 595.91 198.84 600.25 204.18 605.1 211.76 608.25 227.04 607.22 234.9 605.8 242.72 604.62 259.48 606.82 268.54 610.36 274.64 615.38 281.08 621.97 287.85 630.32 294.61 640 301.71 650.67 309.14 662.12 316.56 673.61 324.32 684.49 332.4 694.43 340.47 702.55 348.86 708.25 357.55 711.56 366.23 711.79 375.21 708.84 384.48 703.41 393.75 695.52 403.11 685.8 412.52 675.26 421.95 664.25 431.46 653.47 441.04 643.78 450.66 635.36 460.36 628.52 470.15 623.77 480 620.79 489.96 619.45 499.99 619.94 510.09 621.5 520.29 623.72 530.53 626.75 540.82 629.63 551.14 631.96 561.42 634.01 571.67 634.92 581.81 634.51 591.74 633.17 601.52 630.31 610.96 625.98 619.95 620.62 628.59 613.93 636.62 606.1 643.89 597.5 650.62 588.04 656.45 577.96 661.26 567.46 665.38 556.6 668.4 545.55 670.26 534.39 671.42 523.21 671.47 512.13 670.44 501.08 668.93 490.21 666.54 479.54 663.39 468.96 660.19 458.59 656.57 448.46 652.73 438.39 649.38 428.52 646.19 418.86 643.34 409.23 641.47 399.77 640.22 390.49 639.68 381.21 640.37 372.31 641.75 363.79 643.74 355.25 646.71 347.06 649.99 339.24 653.41 331.39 657.3 323.88 660.94 316.72 664.15 309.49 667.28 302.58 669.63 295.97 671.09 289.24 672.05 282.76 671.92 276.49 670.66 270.02 668.7 263.68 665.58 257.44 661.35 250.91 656.44 244.4 650.51 237.87 643.69 230.99 636.33 224.06 628.22 217.07 619.51 209.75 610.47 202.41 600.98 195.09 591.16 187.59 581.2 180.23 571.04 173.12 560.77 166.07 550.49 159.44 540.17 153.35 529.88 147.58 519.65 142.52 509.47 138.26 499.38 134.49 489.37 131.58 479.44 129.55 469.61 127.97 459.84 127.18 450.15 127.13 440.55 127.26 430.99 127.91 421.5 128.97 412.08 129.84 402.68 130.88 393.33 132 384.07 132.61 374.8 133.18 365.82 133.68 357.14 133.67 348.46 133.7 340.07 133.85 331.99 133.74 323.91 133.96 316.14 134.62 308.71 135.37 301.28 136.77 294.17 138.88 287.42 141.37 280.64 144.69 274.21 148.82 268.11 153.43 261.97 158.83 256.15 164.96 250.63 171.46 245.02 178.57 239.66 186.16 234.56 193.92 229.29 202.02 224.21 210.34 219.28 218.63 214.12 227.02 209.06 235.46 204.08 243.71 198.79 251.96 193.53 260.18 188.3 268.15 182.74 276.11 177.19 284.08 171.68 291.8 165.88 299.58 160.16 307.45 154.56 315.13 148.79 322.97 143.25 330.98 138.02 338.88 132.8 347.01 128.03 355.42 123.79 363.75 119.79 372.4 116.48 381.38 113.94 390.33 111.83 399.66 110.59 409.36 110.31" stroke-dasharray="11 9" transform="rotate(4.04, 400, 400)" opacity="0.09"></path><path d="M415.23 120.9C424.68 121.11 434.24 122.23 443.88 124.2 453.53 126.57 463.26 129.7 473.02 133.51 482.76 137.56 492.48 142.15 502.1 147.2 511.63 152.3 520.97 157.73 530.01 163.4 538.83 168.95 547.2 174.66 554.99 180.47 562.39 186.04 569.05 191.66 574.85 197.31 580.1 202.66 584.39 208.05 587.63 213.46 591.17 221.18 593.12 236.64 592.33 244.51 591.74 252.3 593.36 268.79 597.16 277.61 601.65 283.52 607.49 289.73 614.68 296.24 623.37 302.73 633.11 309.53 643.57 316.66 654.58 323.76 665.43 331.19 675.55 338.93 684.7 346.67 692.07 354.71 697.17 363.07 700.07 371.42 700.14 380.08 697.3 389.04 692.22 398 684.85 407.07 675.77 416.22 665.86 425.38 655.42 434.64 645.06 443.99 635.55 453.36 627.06 462.83 619.91 472.38 614.58 481.98 610.83 491.66 608.59 501.41 608.08 511.2 608.67 521.05 610.02 530.9 612.31 540.77 614.68 550.61 616.78 560.35 618.86 570.03 620.09 579.53 620.29 588.76 619.81 597.81 618.04 606.47 614.96 614.63 611 622.44 605.78 629.61 599.43 636.03 592.34 641.93 584.33 646.95 575.58 651.01 566.36 654.46 556.64 656.87 546.59 658.23 536.33 659 525.91 658.77 515.47 657.57 504.98 656 494.55 653.66 484.26 650.67 474 647.68 463.9 644.35 453.99 640.84 444.14 637.81 434.47 634.93 425 632.36 415.57 630.7 406.31 629.59 397.26 629.1 388.21 629.72 379.54 630.96 371.26 632.74 362.95 635.42 355 638.39 347.4 641.49 339.76 645.06 332.44 648.42 325.43 651.42 318.33 654.4 311.51 656.72 304.93 658.24 298.22 659.38 291.69 659.54 285.32 658.69 278.73 657.24 272.23 654.73 265.78 651.19 259.04 647.03 252.3 641.91 245.53 635.92 238.45 629.41 231.32 622.16 224.16 614.29 216.73 606.06 209.33 597.34 202 588.25 194.57 578.98 187.34 569.44 180.41 559.74 173.61 549.99 167.28 540.14 161.52 530.27 156.13 520.41 151.44 510.57 147.56 500.79 144.16 491.05 141.59 481.38 139.87 471.8 138.56 462.26 138.01 452.8 138.15 443.44 138.44 434.12 139.21 424.87 140.36 415.71 141.3 406.58 142.39 397.52 143.54 388.56 144.18 379.61 144.76 370.95 145.26 362.61 145.25 354.25 145.26 346.2 145.35 338.47 145.16 330.73 145.26 323.3 145.74 316.2 146.27 309.07 147.39 302.27 149.17 295.79 151.28 289.28 154.17 283.07 157.83 277.18 161.96 271.22 166.86 265.54 172.48 260.13 178.51 254.6 185.16 249.3 192.34 244.21 199.75 238.94 207.55 233.83 215.64 228.85 223.77 223.63 232.08 218.49 240.48 213.41 248.77 208.05 257.09 202.71 265.42 197.4 273.56 191.8 281.7 186.22 289.83 180.7 297.76 174.92 305.72 169.25 313.74 163.72 321.59 158.06 329.54 152.64 337.63 147.55 345.6 142.49 353.76 137.88 362.13 133.8 370.44 129.96 379 126.79 387.84 124.36 396.66 122.34 405.78 121.17 415.22 120.9" stroke-dasharray="4 6" transform="rotate(8.08, 400, 400)" opacity="0.13"></path><path d="M419.61 131.48C428.75 131.68 437.92 132.74 447.11 134.62 456.28 136.87 465.45 139.86 474.55 143.5 483.62 147.38 492.56 151.8 501.3 156.67 509.93 161.61 518.27 166.89 526.22 172.44 533.93 177.89 541.13 183.52 547.71 189.27 553.92 194.82 559.4 200.45 564.04 206.12 569.9 214.24 576.66 230.28 577.8 238.24 578.26 245.93 578.52 261.66 579.63 269.81 581.59 275.19 584.41 280.79 588.29 286.63 593.6 292.39 600.09 298.43 607.74 304.74 616.61 311.01 626.29 317.57 636.46 324.43 646.94 331.26 657.12 338.41 666.48 345.85 674.85 353.28 681.51 361.02 686.04 369.06 688.56 377.1 688.49 385.45 685.77 394.1 681.01 402.76 674.15 411.53 665.69 420.39 656.41 429.26 646.55 438.24 636.63 447.31 627.37 456.39 618.9 465.57 611.54 474.82 605.74 484.09 601.33 493.44 598.27 502.82 596.83 512.22 596.48 521.63 596.94 531.02 598.41 540.38 600.14 549.66 601.82 558.8 603.71 567.83 605.02 576.64 605.55 585.14 605.66 593.42 604.71 601.28 602.63 608.62 599.85 615.6 595.92 621.94 590.92 627.54 585.25 632.66 578.64 636.94 571.24 640.32 563.35 643.15 554.87 645.04 545.94 645.97 536.74 646.41 527.26 645.96 517.63 644.66 507.89 643.07 498.1 640.81 488.36 638 478.59 635.24 468.92 632.2 459.38 629.01 449.86 626.29 440.49 623.71 431.3 621.41 422.13 619.94 413.12 618.95 404.3 618.51 395.47 619.08 387.02 620.19 378.93 621.77 370.82 624.18 363.04 626.84 355.58 629.63 348.07 632.88 340.84 635.96 333.89 638.74 326.84 641.55 320.01 643.79 313.38 645.35 306.59 646.6 299.95 646.99 293.41 646.48 286.66 645.47 279.96 643.5 273.28 640.58 266.34 637.11 259.39 632.73 252.4 627.53 245.16 621.84 237.89 615.42 230.62 608.37 223.17 600.97 215.78 593.05 208.53 584.71 201.25 576.17 194.23 567.32 187.56 558.26 181.08 549.09 175.1 539.79 169.72 530.42 164.73 521.03 160.45 511.61 156.96 502.21 153.94 492.83 151.72 483.49 150.31 474.22 149.27 464.98 148.94 455.81 149.26 446.73 149.69 437.68 150.56 428.71 151.78 419.85 152.78 411 153.9 402.23 155.07 393.59 155.75 384.94 156.34 376.59 156.85 368.56 156.85 360.52 156.85 352.79 156.91 345.36 156.66 337.92 156.66 330.78 156.98 323.96 157.32 317.1 158.19 310.54 159.65 304.29 161.4 297.99 163.87 291.96 167.07 286.22 170.7 280.39 175.08 274.81 180.18 269.46 185.68 263.99 191.82 258.71 198.51 253.6 205.49 248.31 212.9 243.15 220.65 238.1 228.52 232.82 236.61 227.6 244.86 222.44 253.08 217.01 261.38 211.62 269.71 206.26 277.92 200.63 286.15 195.05 294.38 189.54 302.46 183.81 310.56 178.21 318.69 172.77 326.68 167.24 334.74 161.97 342.89 157.02 350.93 152.14 359.12 147.7 367.45 143.79 375.73 140.12 384.21 137.09 392.89 134.78 401.55 132.86 410.45 131.74 419.59 131.48" stroke-dasharray="3 1" transform="rotate(12.12, 400, 400)" opacity="0.16"></path><path d="M422.05 142.07C430.85 142.26 439.59 143.26 448.25 145.03 456.91 147.17 465.45 150.01 473.85 153.48 482.19 157.18 490.31 161.42 498.16 166.1 505.88 170.87 513.23 175.98 520.13 181.37 526.81 186.7 532.93 192.23 538.43 197.9 543.62 203.41 548.1 209 551.82 214.66 556.53 222.83 561.98 239.02 563.09 247.07 563.99 254.86 566.27 270.68 568.78 278.82 571.69 284.16 575.44 289.7 580.16 295.46 586.15 301.12 593.15 307.02 601.08 313.17 610.01 319.26 619.51 325.63 629.28 332.27 639.19 338.87 648.67 345.76 657.27 352.94 664.88 360.1 670.87 367.55 674.86 375.31 677.03 383.05 676.84 391.09 674.23 399.44 669.8 407.79 663.43 416.25 655.56 424.8 646.9 433.36 637.62 442.02 628.17 450.76 619.22 459.51 610.85 468.34 603.37 477.22 597.22 486.12 592.26 495.06 588.5 504 586.21 512.93 584.95 521.85 584.53 530.69 585.15 539.48 586.15 548.15 587.28 556.63 588.79 564.98 589.96 573.06 590.58 580.8 591.01 588.3 590.6 595.36 589.26 601.89 587.41 608.06 584.55 613.61 580.71 618.45 576.3 622.84 570.98 626.45 564.87 629.22 558.29 631.51 551.05 632.95 543.29 633.53 535.23 633.7 526.8 633.08 518.1 631.73 509.25 630.16 500.26 628.02 491.19 625.4 482.08 622.88 472.97 620.12 463.91 617.24 454.86 614.82 445.89 612.53 437.04 610.47 428.2 609.19 419.49 608.32 410.91 607.92 402.34 608.44 394.1 609.42 386.18 610.82 378.23 612.97 370.58 615.35 363.21 617.84 355.78 620.78 348.59 623.58 341.62 626.12 334.55 628.75 327.66 630.88 320.92 632.42 314.03 633.75 307.23 634.31 300.51 634.08 293.59 633.44 286.7 631.92 279.81 629.55 272.7 626.7 265.58 623.01 258.44 618.53 251.1 613.62 243.77 607.99 236.49 601.74 229.1 595.15 221.82 588.03 214.73 580.47 207.69 572.68 200.95 564.55 194.62 556.16 188.52 547.65 182.94 538.96 177.99 530.15 173.43 521.29 169.58 512.36 166.5 503.42 163.86 494.47 161.98 485.53 160.87 476.64 160.09 467.76 159.97 458.93 160.44 450.18 161 441.45 161.96 432.8 163.24 424.24 164.28 415.7 165.43 407.25 166.61 398.91 167.31 390.57 167.92 382.53 168.45 374.79 168.47 367.05 168.47 359.6 168.5 352.44 168.22 345.27 168.14 338.39 168.34 331.8 168.52 325.17 169.16 318.81 170.33 312.74 171.74 306.6 173.81 300.72 176.56 295.07 179.7 289.35 183.56 283.83 188.1 278.51 193.04 273.06 198.63 267.78 204.78 262.64 211.24 257.32 218.18 252.11 225.5 246.99 232.99 241.65 240.76 236.37 248.74 231.14 256.76 225.67 264.9 220.23 273.13 214.84 281.3 209.23 289.51 203.66 297.74 198.19 305.87 192.55 314.03 187.04 322.2 181.72 330.26 176.34 338.37 171.23 346.54 166.45 354.62 161.76 362.79 157.5 371.06 153.77 379.28 150.27 387.64 147.39 396.13 145.2 404.61 143.37 413.25 142.31 422.04 142.07" stroke-dasharray="9 4" transform="rotate(16.16, 400, 400)" opacity="0.20"></path><path d="M422.34 152.66C430.74 152.83 439.01 153.78 447.11 155.45 455.2 157.47 463.11 160.16 470.77 163.45 478.38 166.97 485.7 171.01 492.68 175.49 499.53 180.07 505.97 185 511.92 190.21 517.68 195.4 522.88 200.8 527.48 206.36 531.84 211.79 535.56 217.33 538.62 222.94 542.58 231.11 547.51 247.39 548.94 255.5 550.54 263.37 555.09 279.29 558.97 287.43 562.73 292.77 567.29 298.28 572.72 303.96 579.23 309.55 586.58 315.35 594.66 321.37 603.5 327.33 612.71 333.53 622.02 339.98 631.31 346.38 640.07 353.05 647.92 359.99 654.8 366.9 660.14 374.1 663.64 381.56 665.48 389.02 665.18 396.77 662.69 404.8 658.57 412.83 652.67 420.97 645.38 429.18 637.33 437.41 628.63 445.71 619.68 454.08 611.08 462.46 602.88 470.89 595.38 479.35 588.99 487.81 583.59 496.29 579.23 504.73 576.19 513.15 574.11 521.5 572.84 529.75 572.6 537.92 572.83 545.94 573.31 553.72 574.29 561.36 575.13 568.7 575.64 575.66 576.07 585.54 572.94 602.24 569.02 608.77 563.57 614 548.12 620.09 538.49 620.91 531.58 620.88 524.22 620.16 516.51 618.79 508.64 617.28 500.51 615.28 492.23 612.87 483.88 610.59 475.43 608.11 466.96 605.54 458.47 603.4 449.98 601.38 441.55 599.56 433.12 598.45 424.75 597.69 416.46 597.33 408.17 597.8 400.15 598.67 392.4 599.89 384.62 601.8 377.08 603.91 369.77 606.11 362.4 608.75 355.22 611.27 348.21 613.57 341.11 616 334.14 618 327.28 619.49 320.28 620.84 313.34 621.52 306.45 621.5 299.39 621.16 292.34 620.03 285.3 618.13 278.09 615.83 270.87 612.75 263.67 608.95 256.33 604.74 249.04 599.87 241.84 594.38 234.6 588.57 227.53 582.23 220.69 575.44 213.97 568.42 207.6 561.03 201.66 553.35 196 545.53 190.88 537.48 186.38 529.28 182.28 521.01 178.87 512.64 176.2 504.2 173.94 495.75 172.4 487.27 171.56 478.8 171.03 470.34 171.1 461.91 171.71 453.53 172.38 445.16 173.41 436.86 174.72 428.64 175.79 420.43 176.96 412.3 178.15 404.28 178.87 396.25 179.5 388.51 180.04 381.06 180.09 373.6 180.1 366.41 180.13 359.51 179.84 352.58 179.71 345.92 179.81 339.53 179.85 333.1 180.3 326.91 181.22 320.97 182.32 314.97 184.01 309.19 186.34 303.63 188.99 297.97 192.33 292.49 196.32 287.18 200.69 281.75 205.69 276.44 211.25 271.27 217.14 265.92 223.53 260.66 230.33 255.48 237.35 250.1 244.69 244.77 252.29 239.49 259.98 234 267.85 228.56 275.84 223.17 283.83 217.59 291.91 212.08 300.02 206.68 308.09 201.14 316.19 195.76 324.3 190.58 332.35 185.37 340.42 180.44 348.52 175.85 356.57 171.35 364.67 167.29 372.81 163.73 380.92 160.41 389.11 157.68 397.36 155.61 405.6 153.89 413.93 152.89 422.33 152.66" stroke-dasharray="4 2" transform="rotate(20.200000000000003, 400, 400)" opacity="0.24"></path><path d="M420.44 163.25C428.41 163.4 436.17 164.29 443.7 165.87 451.22 167.77 458.48 170.3 465.44 173.4 472.35 176.74 478.92 180.57 485.1 184.84 491.17 189.22 496.81 193.95 501.95 198.97 506.96 203.99 511.43 209.23 515.34 214.65 519.1 219.97 522.3 225.42 524.95 230.96 528.53 239.08 533.65 255.35 535.66 263.49 537.3 268.75 539.01 274.09 540.93 279.49 543.52 284.74 546.56 290.1 550.17 295.56 554.69 300.9 559.92 306.38 565.89 312.01 572.77 317.55 580.31 323.27 588.39 329.18 597.02 335.03 605.86 341.08 614.63 347.36 623.27 353.59 631.31 360.07 638.43 366.78 644.61 373.47 649.34 380.41 652.37 387.6 653.91 394.78 653.52 402.23 651.16 409.94 647.33 417.65 641.88 425.44 635.15 433.3 627.7 441.16 619.58 449.08 611.15 457.04 602.93 465.01 594.98 473 587.54 480.99 581 488.97 575.28 496.93 570.45 504.82 566.77 512.68 563.95 520.44 561.89 528.05 560.82 535.58 560.26 542.91 560.05 549.98 560.4 556.9 560.77 563.5 560.98 569.71 561.29 578.46 559.1 593 556.16 598.54 552 602.92 539.58 607.73 531.54 608.18 525.72 608 519.4 607.22 512.68 605.88 505.79 604.46 498.58 602.61 491.13 600.42 483.59 598.39 475.87 596.18 468.05 593.9 460.19 592.04 452.26 590.27 444.3 588.68 436.33 587.72 428.36 587.06 420.39 586.75 412.43 587.17 404.66 587.93 397.08 588.99 389.49 590.67 382.08 592.52 374.83 594.45 367.53 596.79 360.37 599.04 353.33 601.11 346.22 603.32 339.18 605.17 332.22 606.58 325.15 607.91 318.12 608.66 311.12 608.8 303.98 608.68 296.86 607.88 289.75 606.38 282.52 604.55 275.31 602.02 268.15 598.81 260.91 595.25 253.76 591.06 246.75 586.29 239.77 581.22 233 575.63 226.52 569.59 220.2 563.33 214.25 556.68 208.77 549.71 203.59 542.6 198.96 535.23 194.94 527.67 191.31 520.03 188.34 512.25 186.07 504.37 184.19 496.46 182.96 488.49 182.4 480.5 182.09 472.5 182.33 464.5 183.06 456.54 183.82 448.57 184.9 440.65 186.23 432.79 187.32 424.94 188.49 417.15 189.68 409.45 190.42 401.75 191.07 394.31 191.63 387.13 191.71 379.94 191.76 373.01 191.8 366.34 191.51 359.64 191.35 353.18 191.38 346.96 191.32 340.7 191.61 334.66 192.3 328.83 193.13 322.95 194.49 317.25 196.41 311.74 198.61 306.13 201.45 300.68 204.89 295.38 208.68 289.95 213.08 284.63 218.03 279.42 223.31 274.05 229.09 268.76 235.31 263.53 241.77 258.13 248.58 252.78 255.69 247.49 262.94 242.01 270.41 236.59 278.04 231.23 285.73 225.72 293.53 220.3 301.4 215 309.27 209.6 317.19 204.37 325.13 199.35 333.05 194.33 340.98 189.59 348.92 185.2 356.84 180.92 364.77 177.06 372.71 173.69 380.64 170.55 388.59 167.97 396.54 166.03 404.5 164.4 412.47 163.46 420.43 163.25" stroke-dasharray="6 7" transform="rotate(24.24, 400, 400)" opacity="0.28"></path><path d="M416.54 173.83C424.04 173.98 431.28 174.81 438.25 176.28 445.2 178.06 451.84 180.44 458.16 183.36 464.42 186.5 470.32 190.12 475.82 194.17 481.23 198.33 486.21 202.85 490.73 207.65 495.15 212.48 499.09 217.54 502.55 222.79 505.92 227.98 508.83 233.3 511.31 238.74 514.85 246.75 520.71 262.92 523.51 271.03 525.76 276.31 528.18 281.65 530.88 287.06 534.22 292.33 538.02 297.68 542.36 303.13 547.5 308.47 553.25 313.92 559.6 319.5 566.68 325 574.26 330.65 582.21 336.45 590.54 342.2 598.92 348.13 607.1 354.25 615.07 360.33 622.39 366.61 628.79 373.11 634.3 379.58 638.46 386.27 641.06 393.19 642.33 400.1 641.87 407.24 639.62 414.62 636.08 421.99 631.07 429.42 624.87 436.89 618 444.37 610.46 451.88 602.56 459.4 594.77 466.92 587.11 474.44 579.82 481.92 573.24 489.39 567.31 496.8 562.12 504.11 557.91 511.38 554.45 518.52 551.7 525.47 549.85 532.34 548.53 538.98 547.59 545.34 547.16 554.5 546.76 570.6 546.04 577.33 542.04 587.29 529.27 595.19 522.61 595.35 517.75 595.08 512.4 594.28 506.61 593 500.65 591.69 494.33 590.02 487.7 588.06 480.99 586.27 474.03 584.34 466.88 582.34 459.69 580.72 452.36 579.19 444.91 577.81 437.47 577 429.93 576.44 422.33 576.16 414.73 576.54 407.25 577.2 399.89 578.1 392.52 579.57 385.26 581.18 378.11 582.86 370.93 584.92 363.82 586.9 356.8 588.72 349.71 590.71 342.67 592.39 335.68 593.7 328.61 594.97 321.56 595.75 314.53 595.99 307.41 596.05 300.31 595.5 293.24 594.34 286.1 592.9 279.01 590.83 272 588.15 264.98 585.18 258.09 581.61 251.38 577.49 244.75 573.12 238.37 568.23 232.32 562.91 226.46 557.37 221.01 551.44 216.03 545.18 211.36 538.78 207.24 532.1 203.72 525.2 200.56 518.21 198.03 511.04 196.16 503.76 194.62 496.42 193.7 488.99 193.38 481.51 193.27 474.02 193.66 466.49 194.49 458.97 195.32 451.44 196.43 443.93 197.77 436.45 198.87 428.98 200.04 421.55 201.22 414.18 201.97 406.82 202.64 399.68 203.22 392.78 203.35 385.87 203.43 379.18 203.49 372.72 203.22 366.24 203.06 359.97 203.05 353.91 202.99 344.86 204.71 327.58 206.8 319.3 208.59 313.75 210.95 308.33 213.87 303.03 217.1 297.61 220.9 292.29 225.23 287.06 229.88 281.68 235.02 276.38 240.6 271.14 246.44 265.75 252.65 260.41 259.19 255.13 265.9 249.7 272.86 244.33 280.01 239.04 287.27 233.64 294.67 228.33 302.17 223.16 309.71 217.93 317.32 212.87 324.97 208.05 332.62 203.23 340.3 198.71 347.98 194.53 355.65 190.47 363.32 186.82 370.98 183.64 378.63 180.68 386.26 178.26 393.86 176.44 401.46 174.91 409.03 174.03 416.53 173.83" stroke-dasharray="8 10" transform="rotate(28.28, 400, 400)" opacity="0.32"></path><path d="M411.01 184.42C418.03 184.55 424.76 185.32 431.19 186.7 437.6 188.35 443.68 190.57 449.43 193.31 455.13 196.25 460.46 199.66 465.41 203.47 470.3 207.41 474.79 211.69 478.86 216.27 482.87 220.89 486.48 225.74 489.68 230.79 492.87 235.81 495.71 240.98 498.22 246.27 501.98 254.12 508.99 270.07 512.66 278.11 515.55 283.37 518.66 288.69 522.08 294.07 526.09 299.33 530.54 304.67 535.47 310.08 541.07 315.4 547.17 320.82 553.74 326.34 560.88 331.78 568.37 337.35 576.06 343.06 583.99 348.71 591.84 354.51 599.41 360.47 606.69 366.4 613.29 372.5 619 378.78 623.87 385.04 627.5 391.49 629.71 398.13 630.74 404.76 630.21 411.59 628.08 418.62 624.81 425.64 620.22 432.7 614.54 439.77 608.23 446.84 601.26 453.91 593.9 460.97 586.57 468.02 579.26 475.03 572.18 481.99 565.66 488.91 559.63 495.76 554.19 502.47 549.57 509.13 545.6 515.64 542.24 521.94 538.68 531.13 534.6 547.91 533.45 555.3 528.71 573.48 517.58 582.51 512.03 582.47 505.71 581.76 490.61 578.27 482.01 575.8 476.08 574.24 469.86 572.57 463.38 570.84 456.87 569.47 450.15 568.16 443.25 566.97 436.34 566.29 429.27 565.82 422.08 565.57 414.88 565.91 407.73 566.47 400.63 567.24 393.54 568.51 386.48 569.89 379.49 571.33 372.47 573.12 365.49 574.85 358.55 576.44 351.57 578.2 344.61 579.7 337.67 580.88 330.69 582.07 323.72 582.83 316.77 583.13 309.78 583.3 302.82 582.94 295.91 582.05 288.98 580.94 282.13 579.26 275.4 577.04 268.7 574.57 262.17 571.55 255.86 568.03 249.67 564.28 243.77 560.05 238.21 555.39 232.88 550.54 227.96 545.31 223.52 539.73 219.38 534.02 215.78 528.02 212.75 521.78 210.06 515.44 207.95 508.91 206.45 502.22 205.25 495.48 204.61 488.62 204.51 481.68 204.58 474.71 205.09 467.68 205.99 460.62 206.87 453.56 208.01 446.48 209.34 439.41 210.43 432.34 211.59 425.28 212.76 418.26 213.52 411.24 214.21 404.41 214.8 397.79 214.98 391.16 215.1 384.72 215.2 378.47 214.97 372.21 214.82 366.12 214.79 360.21 214.65 351.38 215.85 334.41 217.5 326.22 218.91 320.72 220.84 315.34 223.27 310.05 225.97 304.67 229.19 299.36 232.92 294.14 236.93 288.79 241.42 283.51 246.35 278.29 251.52 272.94 257.08 267.64 262.98 262.42 269.07 257.07 275.43 251.79 282.02 246.62 288.74 241.34 295.63 236.19 302.64 231.19 309.73 226.14 316.92 221.29 324.15 216.67 331.42 212.09 338.73 207.79 346.03 203.83 353.35 200 360.67 196.56 367.95 193.58 375.24 190.81 382.49 188.55 389.68 186.85 396.87 185.43 403.99 184.6 411 184.42" stroke-dasharray="5 8" transform="rotate(32.32, 400, 400)" opacity="0.35"></path><path d="M404.41 195.01C410.93 195.13 417.17 195.84 423.09 197.12 429.01 198.65 434.6 200.71 439.86 203.26 447.54 207.6 461.09 218.48 466.96 224.83 472.46 231.53 481.96 245.98 486.11 253.59 488.94 258.64 491.65 263.8 494.28 269.05 497.19 274.21 500.14 279.45 503.23 284.74 506.72 289.94 510.46 295.2 514.5 300.52 519.07 305.73 524.03 311.02 529.39 316.38 535.29 321.65 541.59 327.01 548.23 332.45 555.28 337.83 562.54 343.31 569.88 348.9 577.33 354.44 584.61 360.11 591.52 365.91 598.11 371.67 604.02 377.59 609.06 383.64 613.34 389.68 616.47 395.88 618.32 402.23 619.13 408.58 618.55 415.09 616.55 421.75 613.54 428.42 609.35 435.08 604.16 441.73 598.4 448.38 591.99 455 585.18 461.57 578.32 468.14 571.4 474.64 564.6 481.04 558.22 487.42 552.2 493.69 546.62 499.8 541.72 505.86 537.34 511.74 533.5 517.39 529.03 525.62 522.99 540.44 520.95 546.88 515.02 562.36 504.95 569.73 500.22 569.57 494.86 568.89 481.84 565.78 474.29 563.63 469.07 562.31 463.53 560.89 457.7 559.41 451.83 558.26 445.71 557.16 439.35 556.15 432.99 555.59 426.42 555.2 419.66 554.98 412.9 555.28 406.12 555.76 399.35 556.4 392.57 557.49 385.79 558.66 379.02 559.87 372.24 561.41 365.46 562.88 358.69 564.24 351.91 565.78 345.13 567.09 338.36 568.14 331.57 569.21 324.8 569.92 318.06 570.24 311.31 570.48 304.61 570.25 297.98 569.56 291.38 568.71 284.88 567.36 278.53 565.51 272.27 563.48 266.19 560.95 260.37 557.95 254.69 554.76 249.33 551.12 244.32 547.07 239.55 542.86 235.2 538.27 231.31 533.35 227.72 528.3 224.63 522.95 222.08 517.35 219.84 511.66 218.13 505.75 216.99 499.66 216.08 493.53 215.69 487.24 215.78 480.84 216 474.42 216.61 467.9 217.57 461.33 218.48 454.75 219.62 448.12 220.93 441.47 222.01 434.82 223.15 428.15 224.29 421.49 225.06 414.83 225.76 408.32 226.38 401.98 226.6 395.64 226.77 389.45 226.91 383.43 226.68 374.44 226.42 357.14 226.69 348.8 227.23 340.5 230.37 324.34 233.14 316.43 235.34 311.1 238.03 305.85 241.18 300.66 244.57 295.37 248.42 290.14 252.69 284.98 257.19 279.71 262.07 274.5 267.3 269.37 272.71 264.14 278.42 259 284.37 253.96 290.46 248.86 296.75 243.89 303.19 239.08 309.73 234.26 316.38 229.63 323.1 225.24 329.88 220.9 336.71 216.84 343.55 213.12 350.42 209.52 357.29 206.31 364.12 203.53 370.97 200.94 377.77 198.84 384.5 197.26 391.23 195.94 397.88 195.18 404.4 195.01" stroke-dasharray="4 1" transform="rotate(36.36, 400, 400)" opacity="0.39"></path><path d="M397.37 205.6C406.29 206.03 422.71 209.9 430.16 213.21 439.87 218.47 448.36 225.3 455.68 233.35 463.08 241.66 469.56 250.87 475.39 260.7 481.87 270.39 488.35 280.52 495.26 290.93 503.68 301.02 513.21 311.4 524 322 536.47 332.31 549.91 342.95 563.61 353.9 577.31 364.68 589.54 375.91 598.98 387.57 602.69 393.38 605.37 399.31 606.89 405.36 607.51 411.41 606.89 417.59 605.01 423.88 602.26 430.17 598.44 436.44 593.73 442.65 588.49 448.86 582.64 455.02 576.37 461.1 563.7 473.23 551.03 484.96 539.35 496.06 529.82 506.94 521.99 516.98 515.75 525.88 511.64 534.34 508.3 541.42 505.12 546.9 501.22 553.35 488.01 557 477.58 554.82 469.83 553.17 460.63 550.8 450.18 548.04 444.9 547.1 439.34 546.19 433.52 545.35 427.69 544.9 421.62 544.58 415.32 544.4 409.02 544.66 402.66 545.06 396.25 545.59 389.85 546.5 383.4 547.48 376.94 548.48 364.01 551.34 350.98 553.79 338.01 555.48 325.06 557.4 312.21 557.94 299.71 556.94 287.44 555.5 275.77 552.26 265.07 547.32 255.06 541.76 246.4 534.59 239.47 526.05 233.6 517.08 229.65 506.97 227.75 496.04 226.66 484.9 227.22 473.13 229.21 460.98 230.14 454.88 231.27 448.72 232.55 442.5 233.6 436.28 234.71 430.02 235.83 423.72 236.6 417.43 237.31 411.26 237.95 405.22 238.22 399.17 238.44 393.25 238.63 387.46 238.14 375.82 237.98 364.63 238.46 353.89 238.75 342.98 240.36 332.38 243.46 322.13 247.18 311.59 252.66 301.26 259.73 291.22 267.62 280.85 276.93 270.76 287.34 261.11 298.31 251.29 310.07 242.08 322.26 233.76 334.73 225.68 347.42 218.8 360.04 213.47 366.39 211.08 372.7 209.13 378.93 207.68 385.17 206.45 391.33 205.75 397.36 205.6" stroke-dasharray="11 9" transform="rotate(40.400000000000006, 400, 400)" opacity="0.43"></path><path d="M390.59 216.18C401.73 216.6 411.89 219.01 421.04 223.17 430.16 228.01 438.32 234.34 445.57 241.84 453.01 249.63 459.84 258.32 466.31 267.64 473.47 276.91 480.84 286.65 488.72 296.7 497.92 306.52 508.06 316.63 519.17 326.94 531.51 337.03 544.41 347.41 557.17 358.02 569.66 368.5 580.55 379.34 588.75 390.48 594.46 401.59 596.18 413.08 593.47 424.9 587.77 436.72 578.71 448.29 567.47 459.48 555.76 470.62 543.75 481.27 532.34 491.22 522.58 500.98 514.14 509.86 507.04 517.62 501.81 525.01 497.39 531.1 493.33 535.72 488.45 541.19 475.36 544.17 465.89 542.3 458.99 540.98 450.77 539.04 441.33 536.75 431.78 535.54 421.12 534.51 409.47 533.81 397.83 534.66 385.81 535.83 373.63 537.16 361.49 539.55 349.21 541.57 336.99 542.94 324.88 544.59 312.93 545.07 301.39 544.24 290.19 543.11 279.66 540.42 270.16 536.21 261.35 531.52 253.88 525.35 248.07 517.9 243.19 510.06 240.06 501.12 238.76 491.32 238.1 481.32 238.89 470.64 240.93 459.47 242.65 448.26 244.89 436.67 247.37 424.86 248.55 413.04 249.54 401.56 250.35 390.48 250.01 379.35 249.93 368.55 250.37 358.11 250.49 347.53 251.73 337.2 254.22 327.16 257.16 316.89 261.63 306.82 267.56 297.04 274.16 287.03 282.12 277.32 291.17 268.07 300.74 258.75 311.15 250.06 322.08 242.25 333.29 234.71 344.8 228.33 356.32 223.42 367.95 219.19 379.45 216.7 390.58 216.18" stroke-dasharray="6 9" transform="rotate(44.44, 400, 400)" opacity="0.47"></path><path d="M384.73 226.77C394.98 227.14 404.45 229.33 413.12 233.13 421.81 237.56 429.78 243.38 437.12 250.31 444.69 257.55 451.93 265.67 459.04 274.44 466.82 283.22 474.91 292.49 483.52 302.09 493.2 311.54 503.64 321.29 514.75 331.23 526.68 341.01 538.82 351.04 550.53 361.25 561.75 371.36 571.33 381.74 578.37 392.34 583.21 402.9 584.52 413.74 581.94 424.76 576.8 435.79 568.65 446.48 558.48 456.7 547.74 466.86 536.49 476.47 525.52 485.34 515.76 494.03 506.96 501.85 499.23 508.59 493.1 515.03 487.72 520.27 482.8 524.18 476.79 528.85 463.12 531.43 454.19 529.91 447.86 528.92 440.38 527.38 431.79 525.52 423.13 524.62 413.4 523.82 402.7 523.22 392 523.96 380.9 524.89 369.61 525.9 358.37 527.86 347.01 529.47 335.74 530.52 324.63 531.89 313.74 532.26 303.35 531.51 293.33 530.59 284.03 528.32 275.78 524.71 268.19 520.75 261.9 515.45 257.14 508.96 253.17 502.16 250.78 494.29 250.01 485.55 249.7 476.64 250.66 467 252.7 456.81 254.38 446.57 256.53 435.87 258.9 424.84 260.1 413.81 261.15 402.98 262.06 392.44 261.88 381.86 261.92 371.51 262.36 361.43 262.41 351.25 263.38 341.26 265.4 331.52 267.68 321.61 271.3 311.9 276.21 302.48 281.63 292.9 288.33 283.65 296.07 274.88 304.26 266.11 313.31 257.98 322.95 250.71 332.84 243.74 343.12 237.87 353.52 233.37 364.01 229.5 374.49 227.23 384.73 226.77" stroke-dasharray="9 4" transform="rotate(48.48, 400, 400)" opacity="0.51"></path><path d="M380.37 237.36C389.78 237.68 398.64 239.66 406.93 243.11 415.27 247.13 423.14 252.43 430.62 258.79 438.35 265.45 445.97 272.97 453.61 281.13 461.84 289.35 470.44 298.08 479.48 307.15 489.35 316.15 499.77 325.45 510.57 334.93 521.87 344.3 533.08 353.9 543.64 363.63 553.58 373.29 561.89 383.16 567.86 393.15 571.89 403.12 572.84 413.26 570.4 423.48 565.79 433.7 558.52 443.5 549.38 452.77 539.64 462 529.23 470.61 518.83 478.47 509.28 486.19 500.36 493.05 492.26 498.89 485.44 504.5 479.3 509.02 473.63 512.35 466.49 516.4 451.81 518.79 443.1 517.66 437.09 516.98 430.14 515.83 422.24 514.36 414.31 513.74 405.43 513.14 395.66 512.63 385.89 513.26 375.76 513.99 365.45 514.72 355.22 516.28 344.9 517.5 334.73 518.24 324.74 519.31 315.04 519.53 305.88 518.8 297.1 518 289.08 516.04 282.09 512.92 275.69 509.55 270.5 504.99 266.72 499.34 263.58 493.45 261.83 486.55 261.49 478.79 261.47 470.89 262.54 462.24 264.53 453 266.15 443.71 268.18 433.89 270.44 423.67 271.64 413.45 272.75 403.31 273.74 393.35 273.74 383.38 273.92 373.53 274.43 363.9 274.48 354.19 275.27 344.62 276.95 335.28 278.72 325.82 281.63 316.55 285.67 307.58 290.07 298.52 295.62 289.8 302.15 281.58 309.05 273.41 316.8 265.87 325.17 259.17 333.77 252.78 342.83 247.42 352.11 243.34 361.48 239.82 370.96 237.77 380.37 237.36" stroke-dasharray="1 7" transform="rotate(52.52, 400, 400)" opacity="0.54"></path><path d="M377.93 247.95C386.56 248.23 394.88 250 402.84 253.1 410.86 256.71 418.64 261.5 426.24 267.27 434.07 273.33 441.94 280.22 449.93 287.73 458.41 295.35 467.22 303.47 476.39 311.94 486.14 320.39 496.24 329.14 506.48 338.08 516.93 346.96 527.08 356.03 536.44 365.21 545.11 374.34 552.22 383.62 557.2 392.96 560.52 402.29 561.15 411.71 558.86 421.11 554.76 430.51 548.32 439.44 540.18 447.8 531.43 456.12 521.92 463.81 512.21 470.75 503.06 477.58 494.26 483.58 486.03 488.65 478.79 493.55 472.09 497.47 465.84 500.34 457.72 503.93 441.87 506.31 433.18 505.57 427.31 505.19 420.72 504.38 413.39 503.27 406.05 502.89 397.93 502.47 389.05 502.05 380.18 502.58 371.02 503.12 361.76 503.6 352.58 504.79 343.38 505.67 334.39 506.11 325.59 506.88 317.13 506.94 309.26 506.18 301.73 505.43 294.97 503.69 289.19 500.94 281.82 496.07 273.8 481.03 273.19 471.15 273.38 464.18 274.5 456.46 276.41 448.13 277.94 439.75 279.84 430.81 281.98 421.41 283.17 412 284.32 402.58 285.4 393.27 285.58 383.94 285.92 374.67 286.51 365.56 286.63 356.4 287.36 347.34 288.8 338.49 290.2 329.57 292.57 320.83 295.89 312.39 299.44 303.93 304.01 295.81 309.48 288.18 315.21 280.66 321.77 273.74 328.97 267.64 336.35 261.83 344.24 256.99 352.47 253.32 360.76 250.15 369.3 248.3 377.93 247.95" stroke-dasharray="0 4" transform="rotate(56.56, 400, 400)" opacity="0.58"></path><path d="M377.65 258.53C385.56 258.77 393.35 260.34 400.99 263.1 408.68 266.31 416.32 270.59 423.93 275.77 431.74 281.23 439.69 287.47 447.79 294.3 456.25 301.25 465 308.71 473.99 316.52 483.34 324.35 492.86 332.48 502.3 340.79 511.76 349.08 520.78 357.55 528.91 366.09 536.35 374.62 542.34 383.25 546.41 391.89 549.08 400.53 549.45 409.18 547.33 417.76 543.7 426.34 538.05 434.41 530.87 441.9 523.1 449.36 514.52 456.19 505.61 462.3 497.02 468.33 488.54 473.59 480.42 478 473.03 482.3 466.02 485.73 459.39 488.25 450.52 491.5 433.62 493.99 424.85 493.64 419.03 493.53 412.71 493.04 405.84 492.25 398.99 492.07 391.53 491.8 383.51 491.46 375.48 491.91 367.3 492.28 359.11 492.54 350.98 493.42 342.93 493.98 335.15 494.14 327.54 494.63 320.33 494.5 313.71 493.68 304.61 492.12 291.25 484.6 287.45 478.56 285.63 474.12 284.85 468.83 285.1 462.78 285.43 456.64 286.54 449.79 288.34 442.31 289.75 434.81 291.52 426.73 293.51 418.15 294.69 409.57 295.87 400.91 297.02 392.28 297.38 383.65 297.88 375.03 298.6 366.51 298.84 357.97 299.56 349.52 300.87 341.24 302.05 332.94 304.02 324.82 306.8 316.99 309.68 309.18 313.44 301.72 318.01 294.75 322.75 287.89 328.26 281.63 334.42 276.13 340.69 270.91 347.53 266.57 354.79 263.31 362.09 260.48 369.74 258.84 377.65 258.53" stroke-dasharray="3 10" transform="rotate(60.599999999999994, 400, 400)" opacity="0.62"></path><path d="M379.56 269.12C386.78 269.32 394.05 270.69 401.32 273.13 408.64 275.94 416.04 279.72 423.51 284.31 431.13 289.16 438.93 294.73 446.87 300.86 455.07 307.13 463.47 313.87 471.99 320.96 480.69 328.1 489.41 335.54 497.89 343.15 506.26 350.77 514.09 358.56 521.01 366.41 527.28 374.26 532.23 382.18 535.49 390.07 537.6 397.97 537.75 405.85 535.79 413.6 532.61 421.34 527.7 428.58 521.43 435.25 514.63 441.9 507.01 447.94 498.96 453.31 491.06 458.63 483.1 463.24 475.3 467.1 468.01 470.9 460.95 473.94 454.19 476.2 447.93 478.44 441.83 479.96 435.83 480.78 430.15 481.7 424.38 482.06 418.44 481.89 412.65 482.02 406.54 481.8 400.08 481.29 393.65 481.29 386.81 481.15 379.58 480.87 372.36 481.24 365.11 481.47 357.96 481.55 350.86 482.14 343.93 482.43 337.33 482.35 327.85 482.41 311.94 479.8 306.01 476.81 301.38 473.02 297 461.49 297.18 453.84 297.58 448.45 298.65 442.39 300.3 435.73 301.59 429.05 303.2 421.8 305.05 414.05 306.2 406.29 307.39 398.41 308.6 390.52 309.12 382.63 309.78 374.71 310.63 366.87 311.02 359.03 311.81 351.25 313.07 343.63 314.14 336.02 315.85 328.58 318.24 321.44 320.62 314.34 323.76 307.58 327.61 301.3 331.55 295.14 336.19 289.55 341.45 284.65 346.78 280.02 352.69 276.19 359.08 273.32 365.49 270.83 372.34 269.39 379.56 269.12" stroke-dasharray="4 5" transform="rotate(64.64, 400, 400)" opacity="0.66"></path><path d="M383.47 279.71C390.04 279.87 396.76 281.06 403.58 283.17 410.45 285.6 417.47 288.89 424.6 292.91 431.85 297.15 439.27 302.05 446.81 307.46 454.49 313.01 462.29 319.01 470.09 325.35 477.95 331.74 485.7 338.43 493.12 345.28 500.33 352.16 506.97 359.2 512.73 366.3 517.9 373.4 521.89 380.56 524.44 387.67 526.06 394.79 526.03 401.87 524.25 408.79 521.5 415.71 517.28 422.15 511.89 428.05 506.01 433.93 499.35 439.25 492.22 443.96 485.11 448.64 477.81 452.7 470.53 456.1 463.57 459.47 456.72 462.2 450.06 464.26 443.76 466.34 437.59 467.82 431.53 468.71 425.74 469.72 419.94 470.25 414.09 470.32 408.36 470.65 402.48 470.67 396.42 470.39 390.39 470.54 384.13 470.5 377.66 470.28 371.19 470.58 364.82 470.7 358.66 470.63 349.58 471 333.25 470.48 326.39 469.25 316.28 464.54 309.06 451.25 309.42 444.52 309.84 439.8 310.82 434.46 312.3 428.58 313.45 422.67 314.89 416.23 316.59 409.3 317.69 402.37 318.88 395.29 320.13 388.17 320.79 381.06 321.6 373.9 322.59 366.8 323.15 359.7 324.04 352.66 325.31 345.78 326.37 338.92 327.94 332.23 330.06 325.82 332.12 319.48 334.8 313.46 338.1 307.88 341.41 302.44 345.35 297.51 349.88 293.23 354.43 289.17 359.54 285.83 365.17 283.35 370.79 281.18 376.91 279.93 383.47 279.71" stroke-dasharray="3 1" transform="rotate(68.68, 400, 400)" opacity="0.70"></path><path d="M389 290.3C400.83 290.85 413.59 294.88 426.75 301.57 440.18 309.05 454.22 318.74 468.01 329.75 481.69 341.04 494.26 353.37 504.04 365.93 511.82 378.57 515.12 391.36 512.71 403.58 507.35 415.79 497.56 426.19 485.34 434.46 472.87 442.67 459.65 448.74 446.78 452.55 434.87 456.51 423.15 458.59 411.75 458.94 400.77 460.19 389.43 460.42 377.92 459.7 366.41 460.57 355.78 460.46 346.65 459.32 334.28 458.05 321.53 446.28 321.78 435.04 322.4 426.75 324.63 416.34 328.13 404.11 329.7 391.89 331.82 379.09 334.42 366.45 335.54 353.87 338.01 341.53 342.06 330.21 345.7 319.16 351.5 309.42 359.38 301.87 367.22 295.09 377.17 290.96 389 290.3" stroke-dasharray="6 11" transform="rotate(72.72, 400, 400)" opacity="0.73"></path><path d="M395.61 300.88C406.13 301.31 417.58 304.68 429.4 310.32 441.34 316.6 453.65 324.83 465.46 334.26 476.96 343.96 487.24 354.6 494.93 365.5 501.02 376.48 503.41 387.6 501.18 398.2 496.73 408.8 488.58 417.82 478.25 425.02 467.52 432.19 455.81 437.6 444.12 441.14 432.98 444.87 421.91 447.05 411.24 447.76 400.87 449.19 390.47 449.65 380.34 449.11 370.21 449.78 361.23 449.43 353.8 448.09 343.74 446.41 333.85 435.45 334.24 425.58 334.72 418.37 336.59 409.35 339.66 398.74 341.2 388.13 343.39 377 346.08 366.01 347.56 355.1 350.15 344.43 354.03 334.69 357.43 325.23 362.6 316.94 369.53 310.59 376.36 304.87 385.09 301.41 395.61 300.88" stroke-dasharray="0 11" transform="rotate(76.76, 400, 400)" opacity="0.77"></path><path d="M402.65 311.47C411.82 311.79 421.78 314.53 431.97 319.17 442.18 324.3 452.52 331.1 462.2 338.95 471.51 347.03 479.59 355.98 485.42 365.18 490.02 374.46 491.66 383.89 489.64 392.91 486.03 401.92 479.42 409.62 470.93 415.83 462 422.05 452 426.84 441.8 430.12 431.85 433.6 421.84 435.81 412.21 436.77 402.76 438.29 393.47 438.91 384.69 438.52 375.91 439.01 368.4 438.5 362.38 437.06 354.21 435.1 346.41 424.95 346.74 416.36 347.06 410.15 348.57 402.45 351.2 393.43 352.67 384.4 354.84 374.96 357.55 365.66 359.3 356.44 362.01 347.47 365.74 339.35 369.03 331.46 373.73 324.61 379.86 319.4 385.86 314.69 393.47 311.87 402.65 311.47" stroke-dasharray="4 4" transform="rotate(80.80000000000001, 400, 400)" opacity="0.81"></path><path d="M409.42 322.06C417.19 322.28 425.5 324.43 433.88 328.12 442.23 332.17 450.49 337.59 458.03 343.9 465.23 350.41 471.3 357.65 475.49 365.16 478.83 372.74 479.86 380.48 478.1 387.94 475.26 395.39 470.08 401.83 463.34 407.09 456.21 412.37 448.04 416.55 439.54 419.55 431.1 422.72 422.49 424.88 414.18 425.99 405.97 427.5 397.96 428.19 390.54 427.93 380.02 427.97 365.45 424.13 361.65 419.95 359.11 414.91 359.97 399.09 362.74 388.42 364.08 380.95 366.16 373.2 368.78 365.6 370.7 358.07 373.44 350.8 377 344.26 380.18 337.91 384.46 332.44 389.85 328.33 395.12 324.58 401.66 322.35 409.42 322.06" stroke-dasharray="11 5" transform="rotate(84.84, 400, 400)" opacity="0.85"></path><path d="M415.28 332.65C427.87 333.25 441.56 339.66 452.81 349.2 463.03 359.27 468.77 371.68 466.57 383.53 461.67 395.38 450.35 404.31 437.06 409.5 423.65 415.16 409.39 418.03 397.32 417.35 385.24 418.17 377.29 415.41 374.01 409.83 370.27 404.7 370.31 395.8 374.27 383.94 376.06 372.08 380.79 359.63 387.58 349.49 393.32 339.88 402.68 333.37 415.28 332.65" stroke-dasharray="3 8" transform="rotate(88.88, 400, 400)" opacity="0.89"></path><path d="M419.63 343.23C429.17 343.57 438.9 348.07 446.44 354.9 453.33 362.05 456.91 371.05 455.03 379.89 451.67 388.72 443.71 395.67 434.11 399.99 424.29 404.61 413.56 407.13 404.35 406.76 392.08 406.01 383.08 392.51 385.81 380.21 387.41 371.37 391.57 362.34 397.33 355.13 402.46 348.25 410.09 343.66 419.63 343.23" stroke-dasharray="8 7" transform="rotate(92.92, 400, 400)" opacity="0.92"></path><path d="M422.07 353.82C434.86 354.44 445.59 365.43 443.49 377.17 438.83 388.91 423.43 396.83 410.96 396.17 398.49 396.97 393.15 389.14 397.35 377.4 399.23 365.65 409.26 354.57 422.07 353.82" stroke-dasharray="3 4" transform="rotate(96.96, 400, 400)" opacity="0.96"></path></g></svg>