<svg xmlns="http://www.w3.org/2000/svg" version="1.1" xmlns:xlink="http://www.w3.org/1999/xlink" xmlns:svgjs="http://svgjs.dev/svgjs" viewBox="0 0 800 800" opacity="0.43"><defs><symbol id="bbburst-shape-1" viewBox="0 0 194 167"><path d="m97 0 96.129 166.5H.871L97 0Z"></path></symbol><symbol id="bbburst-shape-4" viewBox="0 0 149 143"><path d="M71.647 2.781c.898-2.764 4.808-2.764 5.706 0l15.445 47.534a3 3 0 0 0 2.853 2.073h49.98c2.906 0 4.115 3.719 1.764 5.427L106.96 87.193a2.999 2.999 0 0 0-1.09 3.354l15.445 47.534c.898 2.764-2.266 5.062-4.617 3.354l-40.435-29.378a3 3 0 0 0-3.526 0l-40.435 29.378c-2.351 1.708-5.515-.59-4.617-3.354L43.13 90.547a3 3 0 0 0-1.09-3.354L1.605 57.815c-2.35-1.708-1.142-5.427 1.764-5.427h49.98a3 3 0 0 0 2.853-2.073L71.647 2.781Z"></path></symbol><symbol id="bbburst-shape-6" viewBox="0 0 133 116"><path d="M59.7487 10.2513c-13.6683-13.66839-35.8291-13.66839-49.4974 0-13.66839 13.6683-13.66839 35.8291 0 49.4974l49.4974-49.4974ZM66.5 66.5 41.7513 91.2487 66.5 115.997l24.7487-24.7483L66.5 66.5Zm56.249-6.7513c13.668-13.6683 13.668-35.8291 0-49.4974-13.669-13.66839-35.8294-13.66839-49.4977 0l49.4977 49.4974Zm-112.4977 0 31.5 31.5 49.4974-49.4974-31.5-31.5-49.4974 49.4974Zm80.9974 31.5 31.5003-31.5-49.4977-49.4974-31.5 31.5 49.4974 49.4974Z"></path></symbol><symbol id="bbburst-shape-8" viewBox="0 0 87 168"><path d="m12 12 31.2546 18.0749c16.4102 9.4902 20.014 31.6325 7.4603 45.8369L36.3296 92.1884c-12.5684 14.2206-8.9394 36.3916 7.5068 45.8636L75 156" stroke-width="14" stroke-linecap="round" stroke-linejoin="round"></path></symbol><symbol id="bbburst-shape-10" viewBox="0 0 145 145"><circle cx="72.5" cy="72.5" r="61.5" fill="none" stroke-width="22"></circle></symbol></defs><use xlink:href="#bbburst-shape-1" width="22.062134290949864" opacity="0.781599381831251" transform="matrix(0.8258914136372166,-0.5638292054162501,0.5638292054162501,0.8258914136372166,193.1540855836595,170.15888061007286)" fill="#00a19d"></use><use xlink:href="#bbburst-shape-4" width="26.715694624043078" opacity="0.4196343421158213" transform="matrix(0.8899813536657782,0.45599691898874595,-0.45599691898874595,0.8899813536657782,797.8275946371402,166.50237416998556)" fill="#ffbd9b"></use><use xlink:href="#bbburst-shape-6" width="32.09985055136362" opacity="0.15316858789853172" transform="matrix(0.9952329409824517,-0.09752637173308458,0.09752637173308458,0.9952329409824517,-14.102192818090863,130.95418233105704)" fill="#ff5c58"></use><use xlink:href="#bbburst-shape-6" width="24.515737943361717" opacity="0.607795933710018" transform="matrix(0.9768683391426991,-0.2138416422977169,0.2138416422977169,0.9768683391426991,430.9696127305393,-109.13045686470133)" fill="#ffa6d5"></use><use xlink:href="#bbburst-shape-4" width="45.29677374796551" opacity="-0.0859717676719427" transform="matrix(0.7106210256785203,-0.7035749838244734,0.7035749838244734,0.7106210256785203,-236.9138244068593,-219.86714149651033)" fill="#ffbd9b"></use><use xlink:href="#bbburst-shape-1" width="40.1843691927478" opacity="0.10256523036081222" transform="matrix(0.7868652596144976,-0.6171248360030646,0.6171248360030646,0.7868652596144976,372.7753244740184,-230.4471812056522)" fill="#00a19d"></use><use xlink:href="#bbburst-shape-1" width="38.43076020234668" opacity="0.4395614866044406" transform="matrix(0.8310559791118418,0.5561887805255136,-0.5561887805255136,0.8310559791118418,806.1781473008641,-97.0936197690533)" fill="#00a19d"></use><use xlink:href="#bbburst-shape-4" width="30.57098465855816" opacity="0.35823838092115934" transform="matrix(0.7564302215171319,-0.654074399419166,0.654074399419166,0.7564302215171319,-56.56332597375339,330.53783802709654)" fill="#2c2891"></use><use xlink:href="#bbburst-shape-4" width="33.93149005506788" opacity="0.1723182572328621" transform="matrix(0.9732893375351624,0.22958193622400827,-0.22958193622400827,0.9732893375351624,581.7186434673271,363.75324928266105)" fill="#2c2891"></use><use xlink:href="#bbburst-shape-4" width="29.154753172964302" opacity="0.5658788172309499" transform="matrix(0.9911148546463037,0.1330088151192861,-0.1330088151192861,0.9911148546463037,617.0609544834034,81.44951264218031)" fill="#00a19d"></use><use xlink:href="#bbburst-shape-10" width="25.925045464806452" opacity="0.5137272042923261" transform="matrix(0.7316837397962919,0.6816442656677398,-0.6816442656677398,0.7316837397962919,459.61228611145543,18.20164513741014)" fill="none" stroke="#ffbd9b"></use><use xlink:href="#bbburst-shape-4" width="22.90588081067957" opacity="0.4322763502376028" transform="matrix(0.7467847002236793,-0.6650658700548612,0.6650658700548612,0.7467847002236793,380.3006562493759,126.55600724206022)" fill="#00a19d"></use><use xlink:href="#bbburst-shape-6" width="29.304957790981337" opacity="0.648309097760616" transform="matrix(0.9201269083047525,-0.3916203169059766,0.3916203169059766,0.9201269083047525,240.4162679566744,195.5968735430618)" fill="#2c2891"></use><use xlink:href="#bbburst-shape-4" width="23.826286689352976" opacity="0.5195380945374491" transform="matrix(0.7959382677865463,0.6053777943342092,-0.6053777943342092,0.7959382677865463,742.3714586549984,-111.87176713045906)" fill="#ffa6d5"></use><use xlink:href="#bbburst-shape-10" width="20.444941028511632" opacity="0.6334697056528859" transform="matrix(0.9991643607864035,-0.04087273093760384,0.04087273093760384,0.9991643607864035,292.35795238063145,-142.882671692719)" fill="none" stroke="#ff5c58"></use><use xlink:href="#bbburst-shape-10" width="33.56531018352417" opacity="0.042735062387094236" transform="matrix(0.9998944909321331,-0.01452608011716526,0.01452608011716526,0.9998944909321331,740.7713478345611,231.65085454367022)" fill="none" stroke="#ffa6d5"></use><use xlink:href="#bbburst-shape-1" width="18.260826525221866" opacity="0.8652879989519805" transform="matrix(0.9307122709555355,0.3657521957456849,-0.3657521957456849,0.9307122709555355,570.8120270874717,75.23723262854185)" fill="#ffa6d5"></use><use xlink:href="#bbburst-shape-6" width="26.389221304466677" opacity="0.40393209372258654" transform="matrix(0.9819884721640391,0.18894083872190315,-0.18894083872190315,0.9819884721640391,207.10501832415324,86.32112521133178)" fill="#ffbd9b"></use><use xlink:href="#bbburst-shape-6" width="34.23680716213853" opacity="0.2566833332062939" transform="matrix(0.8300805077651338,-0.5576435695212291,0.5576435695212291,0.8300805077651338,-116.93655778157002,261.008210179126)" fill="#ffbd9b"></use><use xlink:href="#bbburst-shape-6" width="37.369828830678664" opacity="0.046751682458869404" transform="matrix(0.913746590125284,-0.40628459118506605,0.40628459118506605,0.913746590125284,-136.59803321625313,-195.7119424983971)" fill="#2c2891"></use><use xlink:href="#bbburst-shape-1" width="35.35032074208641" opacity="0.5571937579124546" transform="matrix(0.9976178913612759,-0.06898219216494617,0.06898219216494617,0.9976178913612759,382.7252140213734,-195.0755551911606)" fill="#2c2891"></use><use xlink:href="#bbburst-shape-6" width="21.823681315789482" opacity="0.5401741357988532" transform="matrix(0.8839994194894063,-0.4674879959340053,0.4674879959340053,0.8839994194894063,0.2509452615712746,91.04582425794894)" fill="#00a19d"></use><use xlink:href="#bbburst-shape-6" width="20.50744408614845" opacity="0.7872640993428849" transform="matrix(0.7962918106706118,0.6049126815160337,-0.6049126815160337,0.7962918106706118,707.8550943031173,135.94631247491435)" fill="#00a19d"></use><use xlink:href="#bbburst-shape-4" width="18.673927011467192" opacity="0.7701889018328882" transform="matrix(0.99699739721735,0.07743506919884224,-0.07743506919884224,0.99699739721735,328.8497952797013,-45.11457048939258)" fill="#ff5c58"></use><use xlink:href="#bbburst-shape-10" width="25.567897032781723" opacity="0.5713495265715963" transform="matrix(0.947580037676155,0.3195185005561599,-0.3195185005561599,0.947580037676155,708.1298184534485,30.14581182018196)" fill="none" stroke="#2c2891"></use><use xlink:href="#bbburst-shape-10" width="43.210510004257635" opacity="0.20867411218762855" transform="matrix(0.9216837843600232,-0.3879420080988732,0.3879420080988732,0.9216837843600232,221.54820965161292,395.7888504956657)" fill="none" stroke="#00a19d"></use><use xlink:href="#bbburst-shape-4" width="10.189657088052387" opacity="0.9662518077274459" transform="matrix(0.9355908117923091,-0.3530861550525709,0.3530861550525709,0.9355908117923091,241.52968618429753,36.235807595290396)" fill="#2c2891"></use><use xlink:href="#bbburst-shape-6" width="45.98712507386411" opacity="0.16056627344043517" transform="matrix(0.9395026878813496,0.34254152954600897,-0.34254152954600897,0.9395026878813496,271.59857633810395,304.84611362923266)" fill="#00a19d"></use><use xlink:href="#bbburst-shape-10" width="27.296915525739564" opacity="0.4453083010910788" transform="matrix(0.8432582965311843,-0.5375085537285199,0.5375085537285199,0.8432582965311843,416.35426060775535,12.400592286824008)" fill="none" stroke="#2c2891"></use><use xlink:href="#bbburst-shape-6" width="17.219582396172363" opacity="0.8450518841612213" transform="matrix(0.7338728855413129,0.6792868229748514,-0.6792868229748514,0.7338728855413129,609.1897433920677,59.33926333713845)" fill="#ff5c58"></use><use xlink:href="#bbburst-shape-1" width="17.84770088990945" opacity="0.8444193788274531" transform="matrix(0.9040893373948659,-0.4273435035295522,0.4273435035295522,0.9040893373948659,207.6775429391942,110.92977580293132)" fill="#ff5c58"></use><use xlink:href="#bbburst-shape-6" width="17.473874304776142" opacity="0.7455443872697042" transform="matrix(0.916780534390405,-0.3993913516375178,0.3993913516375178,0.916780534390405,301.4548175306794,-54.43569399534198)" fill="#ffa6d5"></use><use xlink:href="#bbburst-shape-10" width="14.220953787952016" opacity="0.8892656775943111" transform="matrix(0.9987765080964924,0.049451864217409894,-0.049451864217409894,0.9987765080964924,373.4659845478896,30.885402434144623)" fill="none" stroke="#2c2891"></use><use xlink:href="#bbburst-shape-6" width="22.7542311988012" opacity="0.7231509816183452" transform="matrix(0.7141445263735128,-0.6999982824627151,0.6999982824627151,0.7141445263735128,221.57183129402267,63.251196237367424)" fill="#2c2891"></use><use xlink:href="#bbburst-shape-6" width="32.262364172051164" opacity="0.4154913953253283" transform="matrix(0.998095199347789,-0.06169256874938331,0.06169256874938331,0.998095199347789,335.5109495193788,-260.20046881823214)" fill="#2c2891"></use><use xlink:href="#bbburst-shape-1" width="33.0780750145865" opacity="0.3536148623203792" transform="matrix(0.9331809940171846,-0.3594067784629268,0.3594067784629268,0.9331809940171846,301.8714887571808,317.10542704605825)" fill="#ffbd9b"></use><use xlink:href="#bbburst-shape-8" width="23.93311249372557" opacity="0.5787354803761557" transform="matrix(0.8388558820097322,-0.5443535700421872,0.5443535700421872,0.8388558820097322,32.81431846551834,-57.48988430993609)" fill="none" stroke="#ffa6d5"></use><use xlink:href="#bbburst-shape-4" width="13.073325387679418" opacity="0.9094769810729646" transform="matrix(0.971983925851255,-0.23504733116285728,0.23504733116285728,0.971983925851255,278.96348230923786,-22.349041264907328)" fill="#ff5c58"></use><use xlink:href="#bbburst-shape-8" width="24.437295519907927" opacity="0.6624381216804892" transform="matrix(0.9975602415570535,0.06981091937965864,-0.06981091937965864,0.9975602415570535,475.73797559562314,-139.4270140549241)" fill="none" stroke="#2c2891"></use><use xlink:href="#bbburst-shape-10" width="38.59325205895391" opacity="0.10341956949110609" transform="matrix(0.9729091942822662,-0.23118758548207474,0.23118758548207474,0.9729091942822662,102.19791512763327,373.03878780989976)" fill="none" stroke="#2c2891"></use><use xlink:href="#bbburst-shape-4" width="25.88406049566882" opacity="0.6055960249786148" transform="matrix(0.9318280599899645,-0.362900078004041,0.362900078004041,0.9318280599899645,66.1827135038923,14.377335865758937)" fill="#00a19d"></use><use xlink:href="#bbburst-shape-10" width="31.901421071486325" opacity="0.4262749498303474" transform="matrix(0.9999311926512152,-0.011730727305594336,0.011730727305594336,0.9999311926512152,173.08651638159154,-155.04971386529647)" fill="none" stroke="#ffbd9b"></use><use xlink:href="#bbburst-shape-4" width="26.068111253985144" opacity="0.39713024342444003" transform="matrix(0.9107323233543436,0.41299713703317514,-0.41299713703317514,0.9107323233543436,450.35414507255723,281.338326170616)" fill="#ff5c58"></use><use xlink:href="#bbburst-shape-8" width="12.103055440970403" opacity="0.9322169293517761" transform="matrix(0.9708676367274981,0.2396164267222987,-0.2396164267222987,0.9708676367274981,516.1116580567088,25.921605621599895)" fill="none" stroke="#2c2891"></use><use xlink:href="#bbburst-shape-10" width="21.870818246651755" opacity="0.6467376450250284" transform="matrix(0.9641673702774393,0.2652947079990239,-0.2652947079990239,0.9641673702774393,345.24262911234996,63.115837943568636)" fill="none" stroke="#ffa6d5"></use><use xlink:href="#bbburst-shape-1" width="31.89968780943589" opacity="0.22196707374770341" transform="matrix(0.8951931810207595,0.44567832419126435,-0.44567832419126435,0.8951931810207595,472.66053115190607,372.8481942200477)" fill="#2c2891"></use><use xlink:href="#bbburst-shape-1" width="15.663075288998337" opacity="0.9041366096718916" transform="matrix(0.7122843081254743,0.7018910630562369,-0.7018910630562369,0.7122843081254743,632.4170941525845,103.80405548750758)" fill="#ffbd9b"></use><use xlink:href="#bbburst-shape-6" width="34.188240016127025" opacity="0.19471945715801808" transform="matrix(0.8645560776502081,0.5025363554988705,-0.5025363554988705,0.8645560776502081,223.901329533404,40.067834910675174)" fill="#ff5c58"></use><use xlink:href="#bbburst-shape-4" width="38.90247786641055" opacity="0.1354854896532779" transform="matrix(0.9985823170620446,0.05322927813711427,-0.05322927813711427,0.9985823170620446,678.3933420240602,273.20579374127004)" fill="#ffa6d5"></use><use xlink:href="#bbburst-shape-6" width="11.358095124414952" opacity="0.8282018793484563" transform="matrix(0.9978112148775025,0.06612699497695779,-0.06612699497695779,0.9978112148775025,494.8922403256701,-21.515788966348794)" fill="#ffa6d5"></use><use xlink:href="#bbburst-shape-1" width="17.337520035271936" opacity="0.8345980496294937" transform="matrix(0.9932552962684427,0.11594790396849822,-0.11594790396849822,0.9932552962684427,492.08826344001346,-49.16804499120343)" fill="#ffa6d5"></use><use xlink:href="#bbburst-shape-10" width="29.832258478062478" opacity="0.6104972206612448" transform="matrix(0.8764603097059639,-0.4814741171757063,0.4814741171757063,0.8764603097059639,161.6894527239521,-115.61128483417147)" fill="none" stroke="#ff5c58"></use><use xlink:href="#bbburst-shape-4" width="22.678627164532955" opacity="0.6723524755512684" transform="matrix(0.826789674370213,0.5625111859819297,-0.5625111859819297,0.826789674370213,726.9273936095673,159.61341168229535)" fill="#ff5c58"></use><use xlink:href="#bbburst-shape-6" width="47.748658920759" opacity="0.21402934915398886" transform="matrix(0.965203993845923,-0.2614980884516739,0.2614980884516739,0.965203993845923,323.825763041634,-329.7598953790618)" fill="#ffa6d5"></use><use xlink:href="#bbburst-shape-6" width="23.823112235528285" opacity="0.7025831264036104" transform="matrix(0.9838753642955622,0.1788554375250432,-0.1788554375250432,0.9838753642955622,587.1475629704483,45.56123732614378)" fill="#2c2891"></use><use xlink:href="#bbburst-shape-4" width="32.685579869401245" opacity="0.2247018807117792" transform="matrix(0.869329069562997,0.49423371881401806,-0.49423371881401806,0.869329069562997,850.0211309886163,-180.88623494964804)" fill="#00a19d"></use><use xlink:href="#bbburst-shape-8" width="37.769033925447275" opacity="0.3257827390219423" transform="matrix(0.9531199187989343,0.30259282937424814,-0.30259282937424814,0.9531199187989343,320.27388358819474,-229.1347518447687)" fill="none" stroke="#00a19d"></use><use xlink:href="#bbburst-shape-4" width="15.671394254695663" opacity="0.8199249016912105" transform="matrix(0.9997630838918591,0.021766398118187685,-0.021766398118187685,0.9997630838918591,422.3218940828281,-78.20497697519141)" fill="#ffa6d5"></use><use xlink:href="#bbburst-shape-10" width="29.66326768520068" opacity="0.4366468146050617" transform="matrix(0.8597793895916216,-0.5106656452449672,0.5106656452449672,0.8597793895916216,-29.59977913090802,201.77762293436479)" fill="none" stroke="#00a19d"></use><use xlink:href="#bbburst-shape-6" width="15.259138967147893" opacity="0.8082442374477445" transform="matrix(0.7302105252568741,-0.6832222104147961,0.6832222104147961,0.7302105252568741,61.49013886091461,175.48136229847387)" fill="#ffbd9b"></use><use xlink:href="#bbburst-shape-10" width="31.600656114966256" opacity="0.5239769126385241" transform="matrix(0.9998162906031796,0.019167291005730287,-0.019167291005730287,0.9998162906031796,536.3873215949129,157.88667123431793)" fill="none" stroke="#ffbd9b"></use><use xlink:href="#bbburst-shape-8" width="39.90689856215849" opacity="-0.07828229326581937" transform="matrix(0.9999992517075604,-0.001223349630761071,0.001223349630761071,0.9999992517075604,46.81594583690523,353.193951313409)" fill="none" stroke="#ffa6d5"></use><use xlink:href="#bbburst-shape-10" width="28.442526975288015" opacity="0.4814104863150044" transform="matrix(0.9884536380402882,-0.1515236134895117,0.1515236134895117,0.9884536380402882,218.95937825018615,-200.93769451535738)" fill="none" stroke="#2c2891"></use><use xlink:href="#bbburst-shape-6" width="23.81245675850398" opacity="0.7300293382233556" transform="matrix(0.9924557534088612,0.1226033340723235,-0.1226033340723235,0.9924557534088612,333.4758125963977,64.76561764833451)" fill="#2c2891"></use><use xlink:href="#bbburst-shape-8" width="27.41124803698959" opacity="0.29484805603352693" transform="matrix(0.9080048608187339,0.41895963138416054,-0.41895963138416054,0.9080048608187339,241.83646286284244,81.37899619738346)" fill="none" stroke="#ffa6d5"></use><use xlink:href="#bbburst-shape-4" width="28.757653324450775" opacity="0.5351406967806395" transform="matrix(0.9738903536450184,0.22701889585931137,-0.22701889585931137,0.9738903536450184,356.8383863529768,178.57803335138226)" fill="#ff5c58"></use><use xlink:href="#bbburst-shape-4" width="28.448534308024065" opacity="0.4426639529384264" transform="matrix(0.7306088124599118,-0.6827962823243235,0.6827962823243235,0.7306088124599118,104.68518989744746,368.01010429959)" fill="#ffa6d5"></use><use xlink:href="#bbburst-shape-1" width="24.79269229275002" opacity="0.5767261684264474" transform="matrix(0.8067018769864354,0.5909586124819252,-0.5909586124819252,0.8067018769864354,472.66064259177926,182.51464141673006)" fill="#2c2891"></use><use xlink:href="#bbburst-shape-4" width="31.41548883451486" opacity="0.31160712378844935" transform="matrix(0.7078423661033113,-0.7063704302625258,0.7063704302625258,0.7078423661033113,389.5658784667962,2.4705423682011656)" fill="#00a19d"></use><use xlink:href="#bbburst-shape-6" width="27.213726263892358" opacity="0.5344241211624114" transform="matrix(0.9990728750253463,-0.04305102076128934,0.04305102076128934,0.9990728750253463,437.225354892219,199.110022047766)" fill="#ffa6d5"></use><use xlink:href="#bbburst-shape-10" width="41.83029207188185" opacity="0.12869746272179172" transform="matrix(0.915799454496883,0.40163585390650985,-0.40163585390650985,0.915799454496883,281.89306753817084,-268.54934204085197)" fill="none" stroke="#ffa6d5"></use><use xlink:href="#bbburst-shape-4" width="32.72181177187558" opacity="0.04513872923934725" transform="matrix(0.9024389533995294,-0.4308177519406111,0.4308177519406111,0.9024389533995294,568.9521017098973,-194.46872204686846)" fill="#ff5c58"></use><use xlink:href="#bbburst-shape-6" width="27.662409278117362" opacity="0.42508307980567184" transform="matrix(0.8232059934539481,-0.5677428047465669,0.5677428047465669,0.8232059934539481,-96.59329244120187,60.928723125355646)" fill="#2c2891"></use><use xlink:href="#bbburst-shape-4" width="33.15567766826692" opacity="0.321503658350056" transform="matrix(0.8174902714666308,0.5759424068927502,-0.5759424068927502,0.8174902714666308,830.6336466552966,281.42706175523267)" fill="#00a19d"></use><use xlink:href="#bbburst-shape-6" width="21.334389271612032" opacity="0.745115183442098" transform="matrix(0.9935999218612004,-0.11295660794046794,0.11295660794046794,0.9935999218612004,315.7072259265026,114.86325213365814)" fill="#ffbd9b"></use><use xlink:href="#bbburst-shape-6" width="37.782541879374364" opacity="0.2268323056162328" transform="matrix(0.9275402387698178,0.37372330066886295,-0.37372330066886295,0.9275402387698178,879.1021602528535,-1.5097409906879307)" fill="#ffbd9b"></use><use xlink:href="#bbburst-shape-1" width="45.357048134492544" opacity="0.09324327332391946" transform="matrix(0.9096527040258011,0.41536966434556616,-0.41536966434556616,0.9096527040258011,757.1433873968821,375.62972622484006)" fill="#ffbd9b"></use><use xlink:href="#bbburst-shape-6" width="35.56990054888939" opacity="0.09455079503527519" transform="matrix(0.9338963301702213,0.3575439056879491,-0.3575439056879491,0.9338963301702213,337.0706038710755,-340.70585497272015)" fill="#00a19d"></use><use xlink:href="#bbburst-shape-6" width="31.73191381863572" opacity="0.34001705235730073" transform="matrix(0.8519999840582676,-0.5235418103310486,0.5235418103310486,0.8519999840582676,343.6959802570297,-178.33620067516551)" fill="#ffa6d5"></use><use xlink:href="#bbburst-shape-6" width="16.597799508114775" opacity="0.8244432323969345" transform="matrix(0.9959197471924917,-0.09024332192491324,0.09024332192491324,0.9959197471924917,277.282966992671,12.46237546883151)" fill="#ffbd9b"></use><use xlink:href="#bbburst-shape-10" width="15.371717515427923" opacity="0.8472013132555223" transform="matrix(0.9107247053120036,0.4130139357629042,-0.4130139357629042,0.9107247053120036,624.3260161115079,51.40329397764168)" fill="none" stroke="#ffbd9b"></use><use xlink:href="#bbburst-shape-8" width="39.31196848454155" opacity="0.22357909568358592" transform="matrix(0.9059655221168,0.4233514765955516,-0.4233514765955516,0.9059655221168,860.247022733409,192.9034199668289)" fill="none" stroke="#2c2891"></use><use xlink:href="#bbburst-shape-10" width="31.764805432730828" opacity="0.32961902383940533" transform="matrix(0.9891238039339773,0.1470853510421039,-0.1470853510421039,0.9891238039339773,154.84595015984394,-86.8739803471837)" fill="none" stroke="#2c2891"></use><use xlink:href="#bbburst-shape-1" width="34.360774422879814" opacity="0.15323338940668052" transform="matrix(0.9466810748098519,-0.32217222505495985,0.32217222505495985,0.9466810748098519,-107.002000372109,-92.40998308451015)" fill="#00a19d"></use><use xlink:href="#bbburst-shape-6" width="40.336220776354146" opacity="0.04300291770791831" transform="matrix(0.7662296026394103,-0.642566880596138,0.642566880596138,0.7662296026394103,-225.03599818067985,353.77831176182764)" fill="#00a19d"></use><use xlink:href="#bbburst-shape-10" width="16.17367257087572" opacity="0.9088195349484123" transform="matrix(0.7251297860267949,0.6886122228197338,-0.6886122228197338,0.7251297860267949,707.8097550489049,89.47593449274763)" fill="none" stroke="#ffa6d5"></use><use xlink:href="#bbburst-shape-10" width="30.03218635020694" opacity="0.28478188468962373" transform="matrix(0.9967259530265901,0.08085403244882562,-0.08085403244882562,0.9967259530265901,306.9738482219468,-302.2253328385075)" fill="none" stroke="#ffa6d5"></use><use xlink:href="#bbburst-shape-6" width="12.842210237355875" opacity="0.9007765879950035" transform="matrix(0.9580016963250867,-0.28676253213810265,0.28676253213810265,0.9580016963250867,291.4205072624909,-24.28877160237124)" fill="#ffa6d5"></use><use xlink:href="#bbburst-shape-4" width="23.95319661123476" opacity="0.6736582535633062" transform="matrix(0.9726462074273381,-0.23229153057573076,0.23229153057573076,0.9726462074273381,363.67630188027846,143.7822736350978)" fill="#ffbd9b"></use><use xlink:href="#bbburst-shape-1" width="22.638050829524058" opacity="0.15931950644292703" transform="matrix(0.9983911791124519,0.05670144152001789,-0.05670144152001789,0.9983911791124519,779.4541006152976,87.41301824137253)" fill="#ff5c58"></use><use xlink:href="#bbburst-shape-10" width="23.30331116049396" opacity="0.6631618749951864" transform="matrix(0.8182091068004738,-0.5749207402318783,0.5749207402318783,0.8182091068004738,311.08994772869505,62.15926248475728)" fill="none" stroke="#00a19d"></use><use xlink:href="#bbburst-shape-6" width="23.16747449091101" opacity="0.5865064176575787" transform="matrix(0.8461091758573925,-0.5330096270518234,0.5330096270518234,0.8461091758573925,128.770870514408,247.44515007477293)" fill="#ffa6d5"></use><use xlink:href="#bbburst-shape-10" width="31.681253698235373" opacity="0.2493412377609241" transform="matrix(0.881793540656643,-0.4716356132187447,0.4716356132187447,0.881793540656643,-82.3377059693325,-134.62908329585542)" fill="none" stroke="#ffa6d5"></use><use xlink:href="#bbburst-shape-6" width="17.433054482023916" opacity="0.7382591890672421" transform="matrix(0.9924236763901566,-0.12286271419859501,0.12286271419859501,0.9924236763901566,272.70856146909097,-90.99431550386544)" fill="#00a19d"></use><use xlink:href="#bbburst-shape-6" width="19.750703629880125" opacity="0.7659929705369586" transform="matrix(0.755662865975856,0.6549607873645227,-0.6549607873645227,0.755662865975856,759.801953121608,89.06916691942666)" fill="#ffa6d5"></use><use xlink:href="#bbburst-shape-6" width="32.96080313235839" opacity="0.19101371495333053" transform="matrix(0.8582580392828122,0.5132184116011651,-0.5132184116011651,0.8582580392828122,542.2585918799823,-312.5077406645381)" fill="#ff5c58"></use><use xlink:href="#bbburst-shape-8" width="21.426312484306152" opacity="0.7294340217441649" transform="matrix(0.9219286235111772,0.38735979805703397,-0.38735979805703397,0.9219286235111772,547.4004424036656,-94.65362408710496)" fill="none" stroke="#2c2891"></use><use xlink:href="#bbburst-shape-1" width="42.98497642450911" opacity="-0.07838449022700456" transform="matrix(0.8196864810498832,-0.5728124237340348,0.5728124237340348,0.8196864810498832,490.2348200192388,-264.7426667978322)" fill="#00a19d"></use><use xlink:href="#bbburst-shape-10" width="26.533052559949567" opacity="0.3289855594067511" transform="matrix(0.9656598184550093,0.2598097669862288,-0.2598097669862288,0.9656598184550093,784.7474753993201,80.69157951648077)" fill="none" stroke="#ff5c58"></use><use xlink:href="#bbburst-shape-10" width="24.797103897342108" opacity="0.668120869518293" transform="matrix(0.9166900442067714,0.39959900256655745,-0.39959900256655745,0.9166900442067714,413.48059212296727,-35.51237203084912)" fill="none" stroke="#ff5c58"></use><use xlink:href="#bbburst-shape-8" width="30.328862716210136" opacity="0.38505864584837457" transform="matrix(0.9707075742201247,-0.24026403258016202,0.24026403258016202,0.9707075742201247,365.62120821537997,-250.5940684986358)" fill="none" stroke="#ff5c58"></use><use xlink:href="#bbburst-shape-8" width="24.539579574614045" opacity="0.6831354070640807" transform="matrix(0.9963441210015187,-0.08543063002056689,0.08543063002056689,0.9963441210015187,270.272033448117,118.21547061023921)" fill="none" stroke="#ffa6d5"></use><use xlink:href="#bbburst-shape-1" width="20.293349382113973" opacity="0.8173541581939809" transform="matrix(0.9223356153166266,-0.3863897161137959,0.3863897161137959,0.9223356153166266,210.86526987380321,-43.211872523335785)" fill="#ffa6d5"></use><use xlink:href="#bbburst-shape-6" width="29.193858002772835" opacity="0.35434499265744823" transform="matrix(0.9875200888047962,0.15749309256906263,-0.15749309256906263,0.9875200888047962,589.3500112528726,256.86010787995616)" fill="#ff5c58"></use><use xlink:href="#bbburst-shape-4" width="42.00860462814312" opacity="0.14241621409492633" transform="matrix(0.9990977682683658,-0.04246939417004759,0.04246939417004759,0.9990977682683658,512.6784993053519,-354.0020538918382)" fill="#ffbd9b"></use><use xlink:href="#bbburst-shape-10" width="35.571340408907076" opacity="0.14875016923862816" transform="matrix(0.8151534259091299,0.5792451054852417,-0.5792451054852417,0.8151534259091299,978.6436904348845,-63.230817651292284)" fill="none" stroke="#00a19d"></use><use xlink:href="#bbburst-shape-4" width="21.285274912118513" opacity="0.581346694206931" transform="matrix(0.9767742524491803,-0.2142709960595345,0.2142709960595345,0.9767742524491803,477.14113189396704,-62.436688215508696)" fill="#2c2891"></use><use xlink:href="#bbburst-shape-8" width="23.482453952279847" opacity="0.7299192098356947" transform="matrix(0.7821926716026534,0.6230366156905255,-0.6230366156905255,0.7821926716026534,518.5176895908465,82.18835135092473)" fill="none" stroke="#ff5c58"></use><use xlink:href="#bbburst-shape-4" width="46.08073997607396" opacity="-0.08646170545348775" transform="matrix(0.975979444863137,-0.2178626246161625,0.2178626246161625,0.975979444863137,631.5764994792065,364.8311719631334)" fill="#00a19d"></use><use xlink:href="#bbburst-shape-10" width="10.615381112949322" opacity="0.9717599653194329" transform="matrix(0.992463026710976,0.12254444341416965,-0.12254444341416965,0.992463026710976,448.81836535677894,-9.289229750862717)" fill="none" stroke="#00a19d"></use><use xlink:href="#bbburst-shape-10" width="14.729626641405478" opacity="0.9167238612024038" transform="matrix(0.8076153734493928,0.5897095968086308,-0.5897095968086308,0.8076153734493928,629.0851496826217,110.07536154219758)" fill="none" stroke="#00a19d"></use></svg>