<svg xmlns="http://www.w3.org/2000/svg" version="1.1" xmlns:xlink="http://www.w3.org/1999/xlink" xmlns:svgjs="http://svgjs.dev/svgjs" viewBox="0 0 800 800"><g fill="hsl(305, 77%, 40%)"><path d="M367 351H417C445 351 467 373 467 401H417C389 401 367 379 367 351Z " transform="matrix(-0.3722553234805649,-0.18156105252859783,0.18156105252859783,-0.3722553234805649,503.96351414064276,591.6789605331177)" opacity="0.64"></path><path d="M67 30H117C145 30 167 52 167 80H117C89 80 67 58 67 30Z " transform="matrix(-0.21216966872020193,0.21970812362667205,-0.21970812362667205,-0.21216966872020193,153.90779803973058,40.96348131529048)" opacity="0.47"></path><path d="M701 545H751C779 545 801 567 801 595H751C723 595 701 573 701 545Z " transform="matrix(-0.008415247264310692,0.24098115209916524,-0.24098115209916524,-0.008415247264310692,894.6791073920215,393.819845714184)" opacity="0.37"></path><path d="M612 584H662C690 584 712 606 712 634H662C634 634 612 612 612 584Z " transform="matrix(0.04907101365513325,0.2125499117738781,-0.2125499117738781,0.04907101365513325,758.9578852305935,438.40771108971654)" opacity="0.33"></path><path d="M226 737H276C304 737 326 759 326 787H276C248 787 226 765 226 737Z " transform="matrix(-0.1621479175279192,0.24039417365251592,-0.24039417365251592,-0.1621479175279192,503.9331855609229,819.20792122818)" opacity="0.44"></path><path d="M86 129H136C164 129 186 151 186 179H136C108 179 86 157 86 129Z " transform="matrix(0.01613042201167225,0.23067578176884412,-0.23067578176884412,0.01613042201167225,169.33033299881458,120.14400868963966)" opacity="0.35"></path><path d="M616 371H666C694 371 716 393 716 421H666C638 421 616 399 616 371Z " transform="matrix(0.04907101365513325,0.2125499117738781,-0.2125499117738781,0.04907101365513325,717.488469968137,235.00963735116443)" opacity="0.33"></path><path d="M707 635H757C785 635 807 657 807 685H757C729 685 707 663 707 635Z " transform="matrix(-0.008415247264310692,0.24098115209916524,-0.24098115209916524,-0.008415247264310692,922.4179025645321,483.131331055377)" opacity="0.37"></path><path d="M621 664H671C699 664 721 686 721 714H671C643 714 621 692 621 664Z " transform="matrix(0.06769436845578868,0.1965987212266965,-0.1965987212266965,0.06769436845578868,761.0335976913597,510.44083819084824)" opacity="0.32"></path><path d="M93 476H143C171 476 193 498 193 526H143C115 526 93 504 93 476Z " transform="matrix(0.03500317597663433,0.22100135534091203,-0.22100135534091203,0.03500317597663433,248.71622486113822,451.8602150219558)" opacity="0.34"></path><path d="M440 101H490C518 101 540 123 540 151H490C462 151 440 129 440 101Z " transform="matrix(-0.21122073891124632,0.21872547804383902,-0.21872547804383902,-0.21122073891124632,621.0575723000344,45.43832886133593)" opacity="0.47"></path><path d="M197 155H247C275 155 297 177 297 205H247C219 205 197 183 197 155Z " transform="matrix(-0.10675098857959069,0.25148956899925323,-0.25148956899925323,-0.10675098857959069,318.6356165990245,137.09725440151078)" opacity="0.42"></path><path d="M116 737H166C194 737 216 759 216 787H166C138 787 116 765 116 737Z " transform="matrix(0.02770313893173296,0.22562396060234322,-0.22562396060234322,0.02770313893173296,333.3267369163178,703.4366306740305)" opacity="0.35"></path><path d="M385 168H435C463 168 485 190 485 218H435C407 218 385 196 385 168Z " transform="matrix(-0.3646343304214016,-0.2105217288245752,0.2105217288245752,-0.3646343304214016,552.9852400701667,354.95137781002074)" opacity="0.65"></path><path d="M564 182H614C642 182 664 204 664 232H614C586 232 564 210 564 182Z " transform="matrix(-0.11674998257682316,0.2503711456053677,-0.2503711456053677,-0.11674998257682316,737.5113164424806,77.43936299170659)" opacity="0.42"></path><path d="M240 579H290C318 579 340 601 340 629H290C262 629 240 607 240 579Z " transform="matrix(-0.21147411572545494,0.2189878574157637,-0.2189878574157637,-0.21147411572545494,483.59615943950325,668.2238872476033)" opacity="0.47"></path><path d="M2 728H52C80 728 102 750 102 778H52C24 778 2 756 2 728Z " transform="matrix(0.05244093359520292,0.21032909660045904,-0.21032909660045904,0.05244093359520292,207.65088119319512,702.5748639795884)" opacity="0.33"></path><path d="M199 492H249C277 492 299 514 299 542H249C221 542 199 520 199 492Z " transform="matrix(-0.08174481018130018,0.25158465654450374,-0.25158465654450374,-0.08174481018130018,399.42372516865214,496.61748738415076)" opacity="0.40"></path><path d="M145 570H195C223 570 245 592 245 620H195C167 620 145 598 145 570Z " transform="matrix(1.4560498790977505e-17,0.23779099085736544,-0.23779099085736544,1.4560498790977505e-17,336.4856395601324,548.6307567828137)" opacity="0.36"></path><path d="M323 226H373C401 226 423 248 423 276H373C345 276 323 254 323 226Z " transform="matrix(-0.3795753531848232,-0.019892701330992527,0.019892701330992527,-0.3795753531848232,509.58853870385997,353.69339124585076)" opacity="0.58"></path><path d="M394 16H444C472 16 494 38 494 66H444C416 66 394 44 394 16Z " transform="matrix(-0.07236288766597898,0.2523593796443724,-0.2523593796443724,-0.07236288766597898,486.475856689114,-68.0806861677962)" opacity="0.40"></path><path d="M717 458H767C795 458 817 480 817 508H767C739 508 717 486 717 458Z " transform="matrix(-0.008415247264310692,0.24098115209916524,-0.24098115209916524,-0.008415247264310692,889.8483911156231,302.2320207686023)" opacity="0.37"></path><path d="M555 21H605C633 21 655 43 655 71H605C577 71 555 49 555 21Z " transform="matrix(0.12469092924704582,0.0529281592751446,-0.0529281592751446,0.12469092924704582,531.996683132194,8.242680893173414)" opacity="0.20"></path><path d="M712 16H762C790 16 812 38 812 66H762C734 66 712 44 712 16Z " transform="matrix(-0.13166282886827385,0.24762176675492786,-0.24762176675492786,-0.13166282886827385,872.4795680345768,-142.2896102836558)" opacity="0.43"></path><path d="M-11 21H39C67 21 89 43 89 71H39C11 71 -11 49 -11 21Z " transform="matrix(-0.23560526129720108,0.20480852900538363,-0.20480852900538363,-0.23560526129720108,57.609797524838484,48.85030938846129)" opacity="0.48"></path><path d="M307 300H357C385 300 407 322 407 350H357C329 350 307 328 307 300Z " transform="matrix(-0.3637960723485087,0.03823650797684681,-0.03823650797684681,-0.3637960723485087,499.30206292089275,429.5832901655311)" opacity="0.56"></path><path d="M599 737H649C677 737 699 759 699 787H649C621 787 599 765 599 737Z " transform="matrix(0.012221319309713485,0.2331966642530146,-0.2331966642530146,0.012221319309713485,818.764221928793,601.3427195857919)" opacity="0.36"></path><path d="M523 107H573C601 107 623 129 623 157H573C545 157 523 135 523 107Z " transform="matrix(0.008181673281932622,0.23429246837948522,-0.23429246837948522,0.008181673281932622,599.2385070355447,-3.329565254660139)" opacity="0.36"></path></g><g fill="none" stroke-width="3" stroke="hsl(305, 77%, 40%)"><path d="M157 85H207C235 85 257 107 257 135H207C179 135 157 113 157 85Z " transform="matrix(-0.18168648739621296,0.23254809922533606,-0.23254809922533606,-0.18168648739621296,270.18939380580304,81.84805707393886)" opacity="0.45"></path><path d="M261 90H311C339 90 361 112 361 140H311C283 140 261 118 261 90Z " transform="matrix(-0.3132385610794053,0.1329618806439418,-0.1329618806439418,-0.3132385610794053,423.70780876974834,109.67128964386572)" opacity="0.52"></path><path d="M507 728H557C585 728 607 750 607 778H557C529 778 507 756 507 728Z " transform="matrix(-0.339596585178864,0.09099463075104368,-0.09099463075104368,-0.339596585178864,814.6742549001631,958.0322193113532)" opacity="0.54"></path><path d="M709 270H759C787 270 809 292 809 320H759C731 320 709 298 709 270Z " transform="matrix(-0.008415247264310692,0.24098115209916524,-0.24098115209916524,-0.008415247264310692,836.4766125428656,114.57780349970523)" opacity="0.37"></path><path d="M707 361H757C785 361 807 383 807 411H757C729 411 707 389 707 361Z " transform="matrix(-0.008415247264310692,0.24098115209916524,-0.24098115209916524,-0.008415247264310692,856.389066889361,206.82555330495586)" opacity="0.37"></path><path d="M624 286H674C702 286 724 308 724 336H674C646 336 624 314 624 286Z " transform="matrix(0.06769436845578868,0.1965987212266965,-0.1965987212266965,0.06769436845578868,689.516197962301,157.4395133034563)" opacity="0.32"></path><path d="M370 435H420C448 435 470 457 470 485H420C392 485 370 463 370 435Z " transform="matrix(-0.3722553234805649,-0.18156105252859783,0.18156105252859783,-0.3722553234805649,492.8291516986822,707.4930908630708)" opacity="0.64"></path><path d="M634 19H684C712 19 734 41 734 69H684C656 69 634 47 634 19Z " transform="matrix(0.09619947620228873,0.16662238044387714,-0.16662238044387714,0.09619947620228873,625.5309430171651,-74.20248517651267)" opacity="0.29"></path><path d="M702 730H752C780 730 802 752 802 780H752C724 780 702 758 702 730Z " transform="matrix(-0.008415247264310692,0.24098115209916524,-0.24098115209916524,-0.008415247264310692,940.2690357776313,580.1356853059823)" opacity="0.37"></path><path d="M476 18H526C554 18 576 40 576 68H526C498 68 476 46 476 18Z " transform="matrix(0.11894654726105058,0.11894654726105056,-0.11894654726105056,0.11894654726105058,468.54881767291255,-24.680585391537775)" opacity="0.26"></path><path d="M174 409H224C252 409 274 431 274 459H224C196 459 174 437 174 409Z " transform="matrix(-0.04846858377707783,0.24934924731875915,-0.24934924731875915,-0.04846858377707783,343.07453610240697,399.1811339598497)" opacity="0.39"></path><path d="M542 435H592C620 435 642 457 642 485H592C564 485 542 463 542 435Z " transform="matrix(-0.20157615419372266,0.22387299953868747,-0.22387299953868747,-0.20157615419372266,814.31466307048,420.19221520220947)" opacity="0.46"></path><path d="M605 503H655C683 503 705 525 705 553H655C627 553 605 531 605 503Z " transform="matrix(0.04907101365513325,0.2125499117738781,-0.2125499117738781,0.04907101365513325,735.0848394724953,362.87031257819945)" opacity="0.33"></path><path d="M642 197H692C720 197 742 219 742 247H692C664 247 642 225 642 197Z " transform="matrix(0.07618295018484234,0.18855941845697188,-0.18855941845697188,0.07618295018484234,681.1415893695369,74.60426748674047)" opacity="0.31"></path><path d="M309 14H359C387 14 409 36 409 64H359C331 64 309 42 309 14Z " transform="matrix(-0.3400556178091821,0.09111762817363694,-0.09111762817363694,-0.3400556178091821,484.6335542922683,19.550940580222438)" opacity="0.54"></path><path d="M455 386H505C533 386 555 408 555 436H505C477 436 455 414 455 386Z " transform="matrix(-0.3786218993471473,-0.15297317701176655,0.15297317701176655,-0.3786218993471473,633.3320834184733,643.8650550226196)" opacity="0.63"></path><path d="M525 638H575C603 638 625 660 625 688H575C547 688 525 666 525 638Z " transform="matrix(-0.2771704433934895,0.17319531533171073,-0.17319531533171073,-0.2771704433934895,849.2014990161806,747.1766976541498)" opacity="0.50"></path><path d="M-5 117H45C73 117 95 139 95 167H45C17 167 -5 145 -5 117Z " transform="matrix(0.0761705925393507,0.18852883221107636,-0.18852883221107636,0.0761705925393507,68.34341750970206,122.69997840991377)" opacity="0.31"></path><path d="M646 441H696C724 441 746 463 746 491H696C668 491 646 469 646 441Z " transform="matrix(0.07618295018484234,0.18855941845697188,-0.18855941845697188,0.07618295018484234,730.8453556722986,299.26138996781106)" opacity="0.31"></path><path d="M142 218H192C220 218 242 240 242 268H192C164 268 142 246 142 218Z " transform="matrix(1.4560498790977505e-17,0.23779099085736544,-0.23779099085736544,1.4560498790977505e-17,249.7832107783398,197.34412975538584)" opacity="0.36"></path></g></svg>