<svg xmlns="http://www.w3.org/2000/svg" version="1.1" xmlns:xlink="http://www.w3.org/1999/xlink" xmlns:svgjs="http://svgjs.dev/svgjs" viewBox="0 0 1422 800"><defs><linearGradient x1="50%" y1="0%" x2="50%" y2="100%" id="oooscillate-grad"><stop stop-color="hsl(206, 75%, 49%)" stop-opacity="1" offset="0%"></stop><stop stop-color="hsl(331, 90%, 56%)" stop-opacity="1" offset="100%"></stop></linearGradient></defs><g stroke-width="1" stroke="url(#oooscillate-grad)" fill="none" stroke-linecap="round"><path d="M 0 846 Q 355.5 -100 711 400 Q 1066.5 900 1422 846" stroke-dasharray="23 132" opacity="0.37"></path><path d="M 0 799 Q 355.5 -100 711 400 Q 1066.5 900 1422 799" stroke-dasharray="27 128" opacity="0.31"></path><path d="M 0 752 Q 355.5 -100 711 400 Q 1066.5 900 1422 752" stroke-dasharray="76 69" opacity="0.46"></path><path d="M 0 705 Q 355.5 -100 711 400 Q 1066.5 900 1422 705" stroke-dasharray="134 47" opacity="0.38"></path><path d="M 0 658 Q 355.5 -100 711 400 Q 1066.5 900 1422 658" stroke-dasharray="3 9" opacity="0.57"></path><path d="M 0 611 Q 355.5 -100 711 400 Q 1066.5 900 1422 611" stroke-dasharray="59 23" opacity="0.29"></path><path d="M 0 564 Q 355.5 -100 711 400 Q 1066.5 900 1422 564" stroke-dasharray="135 88" opacity="0.81"></path><path d="M 0 517 Q 355.5 -100 711 400 Q 1066.5 900 1422 517" stroke-dasharray="90 74" opacity="0.53"></path><path d="M 0 470 Q 355.5 -100 711 400 Q 1066.5 900 1422 470" stroke-dasharray="1 48" opacity="0.59"></path><path d="M 0 423 Q 355.5 -100 711 400 Q 1066.5 900 1422 423" stroke-dasharray="131 83" opacity="0.69"></path><path d="M 0 376 Q 355.5 -100 711 400 Q 1066.5 900 1422 376" stroke-dasharray="105 111" opacity="0.94"></path><path d="M 0 329 Q 355.5 -100 711 400 Q 1066.5 900 1422 329" stroke-dasharray="37 117" opacity="0.50"></path><path d="M 0 282 Q 355.5 -100 711 400 Q 1066.5 900 1422 282" stroke-dasharray="108 14" opacity="0.44"></path><path d="M 0 235 Q 355.5 -100 711 400 Q 1066.5 900 1422 235" stroke-dasharray="141 77" opacity="0.27"></path><path d="M 0 188 Q 355.5 -100 711 400 Q 1066.5 900 1422 188" stroke-dasharray="82 26" opacity="0.71"></path><path d="M 0 141 Q 355.5 -100 711 400 Q 1066.5 900 1422 141" stroke-dasharray="8 81" opacity="0.84"></path><path d="M 0 94 Q 355.5 -100 711 400 Q 1066.5 900 1422 94" stroke-dasharray="49 109" opacity="0.99"></path></g></svg>