<svg xmlns="http://www.w3.org/2000/svg" version="1.1" xmlns:xlink="http://www.w3.org/1999/xlink" xmlns:svgjs="http://svgjs.dev/svgjs" viewBox="0 0 800 800"><g transform="matrix(1,0,0,1,0,0)"><circle r="81" cx="696" cy="684" stroke-width="0.5" stroke="#daddac" fill="none" opacity="0.1" transform="rotate(100, 400, 400)"></circle><circle r="86.3076923076923" cx="681.4615384615385" cy="645.5384615384615" stroke-width="1.6923076923076923" stroke="#d5ddae" fill="none" opacity="0.11538461538461539" transform="rotate(92.3076923076923, 400, 400)"></circle><circle r="91.61538461538461" cx="666.9230769230769" cy="607.0769230769231" stroke-width="2.8846153846153846" stroke="#d0ddb1" fill="none" opacity="0.13076923076923078" transform="rotate(84.61538461538461, 400, 400)"></circle><circle r="96.92307692307692" cx="652.3846153846154" cy="568.6153846153846" stroke-width="4.076923076923077" stroke="#caddb3" fill="none" opacity="0.14615384615384616" transform="rotate(76.92307692307692, 400, 400)"></circle><circle r="102.23076923076923" cx="637.8461538461538" cy="530.1538461538462" stroke-width="5.269230769230769" stroke="#c4ddb5" fill="none" opacity="0.16153846153846155" transform="rotate(69.23076923076923, 400, 400)"></circle><circle r="107.53846153846153" cx="623.3076923076923" cy="491.69230769230774" stroke-width="6.461538461538462" stroke="#bfddb8" fill="none" opacity="0.1769230769230769" transform="rotate(61.53846153846154, 400, 400)"></circle><circle r="112.84615384615384" cx="608.7692307692307" cy="453.2307692307692" stroke-width="7.653846153846153" stroke="#b9ddba" fill="none" opacity="0.1923076923076923" transform="rotate(53.84615384615385, 400, 400)"></circle><circle r="118.15384615384616" cx="594.2307692307693" cy="414.7692307692308" stroke-width="8.846153846153847" stroke="#b3ddbc" fill="none" opacity="0.20769230769230768" transform="rotate(46.15384615384615, 400, 400)"></circle><circle r="123.46153846153845" cx="579.6923076923077" cy="376.3076923076923" stroke-width="10.038461538461538" stroke="#acddbe" fill="none" opacity="0.22307692307692306" transform="rotate(38.46153846153846, 400, 400)"></circle><circle r="128.76923076923077" cx="565.1538461538462" cy="337.84615384615387" stroke-width="11.23076923076923" stroke="#a6ddc1" fill="none" opacity="0.23846153846153845" transform="rotate(30.769230769230774, 400, 400)"></circle><circle r="134.07692307692307" cx="550.6153846153846" cy="299.3846153846154" stroke-width="12.423076923076923" stroke="#9fddc3" fill="none" opacity="0.25384615384615383" transform="rotate(23.07692307692308, 400, 400)"></circle><circle r="139.3846153846154" cx="536.0769230769231" cy="260.92307692307696" stroke-width="13.615384615384615" stroke="#98ddc5" fill="none" opacity="0.2692307692307692" transform="rotate(15.384615384615387, 400, 400)"></circle><circle r="144.69230769230768" cx="521.5384615384615" cy="222.46153846153845" stroke-width="14.807692307692307" stroke="#90ddc7" fill="none" opacity="0.2846153846153846" transform="rotate(7.692307692307693, 400, 400)"></circle><circle r="150" cx="507" cy="184" stroke-width="16" stroke="#88ddc9" fill="none" opacity="0.3" transform="rotate(0, 400, 400)"></circle></g></svg>