<svg xmlns="http://www.w3.org/2000/svg" version="1.1" xmlns:xlink="http://www.w3.org/1999/xlink" xmlns:svgjs="http://svgjs.dev/svgjs" width="1440" height="560" preserveAspectRatio="none" viewBox="0 0 1440 560"><g mask="url(&quot;#SvgjsMask1063&quot;)" fill="none"><path d="M585.67 309.77 L709.66 316.14L560.1644488390639 400.4555511609361z" stroke="#d3b714" stroke-width="1"></path><rect width="228" height="228" clip-path="url(&quot;#SvgjsClipPath1064&quot;)" x="377.55" y="184.48" fill="url(&quot;#SvgjsPattern1065&quot;)" transform="rotate(28.69, 491.55, 298.48)"></rect><path d="M358.64 399.13L366.81 389.27 378.23 395.07 386.4 385.21 397.81 391.02 405.98 381.15 417.4 386.96M360.27 406.96L368.44 397.1 379.85 402.91 388.02 393.04 399.44 398.85 407.61 388.99 419.02 394.79M361.89 414.79L370.06 404.93 381.47 410.74 389.64 400.88 401.06 406.68 409.23 396.82 420.64 402.63" stroke="rgba(167, 173, 236, 1)" stroke-width="1" stroke-dasharray="3, 2"></path><rect width="372" height="372" clip-path="url(&quot;#SvgjsClipPath1066&quot;)" x="1039.38" y="-42.25" fill="url(&quot;#SvgjsPattern1067&quot;)" transform="rotate(145.43, 1225.38, 143.75)"></rect><rect width="140" height="140" clip-path="url(&quot;#SvgjsClipPath1068&quot;)" x="44.54" y="176.11" fill="url(&quot;#SvgjsPattern1069&quot;)" transform="rotate(127.08, 114.54, 246.11)"></rect><rect width="360" height="360" clip-path="url(&quot;#SvgjsClipPath1070&quot;)" x="1129.39" y="-66.47" fill="url(&quot;#SvgjsPattern1071&quot;)" transform="rotate(121.21, 1309.39, 113.53)"></rect><rect width="288" height="288" clip-path="url(&quot;#SvgjsClipPath1072&quot;)" x="673.79" y="287.84" fill="url(&quot;#SvgjsPattern1073&quot;)" transform="rotate(109.02, 817.79, 431.84)"></rect><rect width="324" height="324" clip-path="url(&quot;#SvgjsClipPath1074&quot;)" x="809.86" y="262.67" fill="url(&quot;#SvgjsPattern1075&quot;)" transform="rotate(1.65, 971.86, 424.67)"></rect><rect width="223.36" height="223.36" clip-path="url(&quot;#SvgjsClipPath1076&quot;)" x="1143.98" y="141.47" fill="url(&quot;#SvgjsPattern1077&quot;)" transform="rotate(191.1, 1255.66, 253.15)"></rect><rect width="72" height="72" clip-path="url(&quot;#SvgjsClipPath1078&quot;)" x="809.3" y="3.91" fill="url(&quot;#SvgjsPattern1079&quot;)" transform="rotate(157.81, 845.3, 39.91)"></rect><rect width="204" height="204" clip-path="url(&quot;#SvgjsClipPath1080&quot;)" x="1213.02" y="366.16" fill="url(&quot;#SvgjsPattern1081&quot;)" transform="rotate(42.98, 1315.02, 468.16)"></rect><circle r="66.73721800423472" cx="346.89" cy="271.03" stroke="#d3b714" stroke-width="1.9" stroke-dasharray="3, 3"></circle></g><defs><mask id="SvgjsMask1063"><rect width="1440" height="560" fill="#ffffff"></rect></mask><pattern x="0" y="0" width="6" height="6" patternUnits="userSpaceOnUse" id="SvgjsPattern1065"><path d="M0 6L3 0L6 6" stroke="#d3b714" fill="none"></path></pattern><clipPath id="SvgjsClipPath1064"><circle r="57" cx="491.55" cy="298.48"></circle></clipPath><pattern x="0" y="0" width="6" height="6" patternUnits="userSpaceOnUse" id="SvgjsPattern1067"><path d="M0 6L3 0L6 6" stroke="rgba(167, 173, 236, 1)" fill="none"></path></pattern><clipPath id="SvgjsClipPath1066"><circle r="93" cx="1225.38" cy="143.75"></circle></clipPath><pattern x="0" y="0" width="7" height="7" patternUnits="userSpaceOnUse" id="SvgjsPattern1069"><path d="M3.5 1L3.5 6M1 3.5L6 3.5" stroke="rgba(167, 173, 236, 1)" fill="none" stroke-width="1.72"></path></pattern><clipPath id="SvgjsClipPath1068"><circle r="35" cx="114.54" cy="246.11"></circle></clipPath><pattern x="0" y="0" width="360" height="6" patternUnits="userSpaceOnUse" id="SvgjsPattern1071"><rect width="360" height="3" x="0" y="0" fill="#d3b714"></rect><rect width="360" height="3" x="0" y="3" fill="rgba(0, 0, 0, 0)"></rect></pattern><clipPath id="SvgjsClipPath1070"><circle r="90" cx="1309.39" cy="113.53"></circle></clipPath><pattern x="0" y="0" width="6" height="6" patternUnits="userSpaceOnUse" id="SvgjsPattern1073"><path d="M3 1L3 5M1 3L5 3" stroke="rgba(167, 173, 236, 1)" fill="none" stroke-width="1.02"></path></pattern><clipPath id="SvgjsClipPath1072"><circle r="72" cx="817.79" cy="431.84"></circle></clipPath><pattern x="0" y="0" width="6" height="6" patternUnits="userSpaceOnUse" id="SvgjsPattern1075"><path d="M3 1L3 5M1 3L5 3" stroke="rgba(167, 173, 236, 1)" fill="none" stroke-width="1"></path></pattern><clipPath id="SvgjsClipPath1074"><circle r="81" cx="971.86" cy="424.67"></circle></clipPath><pattern x="0" y="0" width="13.96" height="13.96" patternUnits="userSpaceOnUse" id="SvgjsPattern1077"><path d="M0 13.96L6.98 0L13.96 13.96" stroke="#d3b714" fill="none"></path></pattern><clipPath id="SvgjsClipPath1076"><circle r="55.84" cx="1255.66" cy="253.15"></circle></clipPath><pattern x="0" y="0" width="6" height="6" patternUnits="userSpaceOnUse" id="SvgjsPattern1079"><path d="M0 6L3 0L6 6" stroke="rgba(167, 173, 236, 1)" fill="none"></path></pattern><clipPath id="SvgjsClipPath1078"><circle r="18" cx="845.3" cy="39.91"></circle></clipPath><pattern x="0" y="0" width="204" height="6" patternUnits="userSpaceOnUse" id="SvgjsPattern1081"><rect width="204" height="3" x="0" y="0" fill="rgba(231, 54, 53, 0.3)"></rect><rect width="204" height="3" x="0" y="3" fill="rgba(0, 0, 0, 0)"></rect></pattern><clipPath id="SvgjsClipPath1080"><circle r="51" cx="1315.02" cy="468.16"></circle></clipPath></defs></svg>