<svg xmlns="http://www.w3.org/2000/svg" version="1.1" xmlns:xlink="http://www.w3.org/1999/xlink" xmlns:svgjs="http://svgjs.dev/svgjs" viewBox="0 0 800 800"><g fill="hsl(158, 52%, 71%)"><circle r="0.5" cx="405" cy="400" opacity="1.00"></circle><circle r="0.5" cx="404" cy="404" opacity="1.00"></circle><circle r="0.5" cx="401" cy="406" opacity="1.00"></circle><circle r="0.5" cx="396" cy="406" opacity="0.99"></circle><circle r="0.5" cx="392" cy="402" opacity="0.99"></circle><circle r="0.5" cx="392" cy="396" opacity="0.99"></circle><circle r="0.5" cx="396" cy="391" opacity="0.99"></circle><circle r="0.5" cx="403" cy="390" opacity="0.99"></circle><circle r="0.5" cx="409" cy="395" opacity="0.99"></circle><circle r="0.5" cx="411" cy="402" opacity="0.98"></circle><circle r="0.5" cx="407" cy="410" opacity="0.98"></circle><circle r="0.5" cx="399" cy="413" opacity="0.98"></circle><circle r="0.5" cx="390" cy="410" opacity="0.98"></circle><circle r="0.5" cx="386" cy="401" opacity="0.98"></circle><circle r="0.5" cx="388" cy="391" opacity="0.97"></circle><circle r="0.5" cx="397" cy="385" opacity="0.97"></circle><circle r="0.5" cx="408" cy="386" opacity="0.97"></circle><circle r="0.5" cx="416" cy="394" opacity="0.97"></circle><circle r="0.5" cx="417" cy="407" opacity="0.97"></circle><circle r="0.5" cx="408" cy="417" opacity="0.97"></circle><circle r="0.5" cx="395" cy="419" opacity="0.96"></circle><circle r="0.5" cx="383" cy="411" opacity="0.96"></circle><circle r="0.5" cx="379" cy="397" opacity="0.96"></circle><circle r="0.5" cx="386" cy="384" opacity="0.96"></circle><circle r="0.5" cx="400" cy="378" opacity="0.96"></circle><circle r="0.5" cx="415" cy="383" opacity="0.95"></circle><circle r="0.5" cx="424" cy="397" opacity="0.95"></circle><circle r="0.5" cx="420" cy="414" opacity="0.95"></circle><circle r="1" cx="406" cy="424" opacity="0.95"></circle><circle r="1" cx="389" cy="423" opacity="0.95"></circle><circle r="1" cx="375" cy="410" opacity="0.95"></circle><circle r="1" cx="374" cy="391" opacity="0.94"></circle><circle r="1" cx="386" cy="376" opacity="0.94"></circle><circle r="1" cx="406" cy="372" opacity="0.94"></circle><circle r="1" cx="423" cy="382" opacity="0.94"></circle><circle r="1" cx="430" cy="402" opacity="0.94"></circle><circle r="1" cx="422" cy="422" opacity="0.94"></circle><circle r="1" cx="402" cy="432" opacity="0.93"></circle><circle r="1" cx="380" cy="426" opacity="0.93"></circle><circle r="1" cx="368" cy="406" opacity="0.93"></circle><circle r="1" cx="371" cy="383" opacity="0.93"></circle><circle r="1" cx="389" cy="367" opacity="0.93"></circle><circle r="1" cx="414" cy="367" opacity="0.92"></circle><circle r="1" cx="432" cy="384" opacity="0.92"></circle><circle r="1" cx="435" cy="410" opacity="0.92"></circle><circle r="1" cx="421" cy="431" opacity="0.92"></circle><circle r="1" cx="395" cy="438" opacity="0.92"></circle><circle r="1" cx="371" cy="426" opacity="0.92"></circle><circle r="1" cx="360" cy="400" opacity="0.91"></circle><circle r="1" cx="370" cy="373" opacity="0.91"></circle><circle r="1" cx="395" cy="359" opacity="0.91"></circle><circle r="1" cx="423" cy="365" opacity="0.91"></circle><circle r="1" cx="441" cy="389" opacity="0.91"></circle><circle r="1" cx="439" cy="419" opacity="0.90"></circle><circle r="1" cx="417" cy="441" opacity="0.90"></circle><circle r="1" cx="386" cy="442" opacity="0.90"></circle><circle r="1" cx="361" cy="423" opacity="0.90"></circle><circle r="1" cx="355" cy="391" opacity="0.90"></circle><circle r="1" cx="372" cy="363" opacity="0.90"></circle><circle r="1" cx="403" cy="353" opacity="0.89"></circle><circle r="1" cx="434" cy="366" opacity="0.89"></circle><circle r="1" cx="449" cy="397" opacity="0.89"></circle><circle r="1" cx="439" cy="430" opacity="0.89"></circle><circle r="1" cx="410" cy="449" opacity="0.89"></circle><circle r="1" cx="374" cy="444" opacity="0.88"></circle><circle r="1" cx="351" cy="416" opacity="0.88"></circle><circle r="1" cx="352" cy="380" opacity="0.88"></circle><circle r="1" cx="377" cy="352" opacity="0.88"></circle><circle r="1" cx="414" cy="348" opacity="0.88"></circle><circle r="1" cx="446" cy="370" opacity="0.88"></circle><circle r="1" cx="455" cy="407" opacity="0.87"></circle><circle r="1" cx="437" cy="442" opacity="0.87"></circle><circle r="1" cx="400" cy="457" opacity="0.87"></circle><circle r="1" cx="362" cy="443" opacity="0.87"></circle><circle r="1" cx="342" cy="407" opacity="0.87"></circle><circle r="1" cx="351" cy="367" opacity="0.86"></circle><circle r="1" cx="385" cy="342" opacity="0.86"></circle><circle r="1" cx="427" cy="346" opacity="0.86"></circle><circle r="1" cx="457" cy="377" opacity="0.86"></circle><circle r="1" cx="459" cy="420" opacity="0.86"></circle><circle r="1" cx="431" cy="454" opacity="0.86"></circle><circle r="1" cx="387" cy="462" opacity="0.85"></circle><circle r="1" cx="349" cy="439" opacity="0.85"></circle><circle r="1" cx="335" cy="395" opacity="0.85"></circle><circle r="1.5" cx="354" cy="353" opacity="0.85"></circle><circle r="1.5" cx="396" cy="334" opacity="0.85"></circle><circle r="1.5" cx="441" cy="347" opacity="0.84"></circle><circle r="1.5" cx="466" cy="387" opacity="0.84"></circle><circle r="1.5" cx="459" cy="434" opacity="0.84"></circle><circle r="1.5" cx="422" cy="466" opacity="0.84"></circle><circle r="1.5" cx="373" cy="464" opacity="0.84"></circle><circle r="1.5" cx="337" cy="431" opacity="0.84"></circle><circle r="1.5" cx="331" cy="381" opacity="0.83"></circle><circle r="1.5" cx="360" cy="340" opacity="0.83"></circle><circle r="1.5" cx="410" cy="328" opacity="0.83"></circle><circle r="1.5" cx="455" cy="352" opacity="0.83"></circle><circle r="1.5" cx="474" cy="400" opacity="0.83"></circle><circle r="1.5" cx="456" cy="450" opacity="0.82"></circle><circle r="1.5" cx="409" cy="475" opacity="0.82"></circle><circle r="1.5" cx="357" cy="463" opacity="0.82"></circle><circle r="1.5" cx="326" cy="420" opacity="0.82"></circle><circle r="1.5" cx="330" cy="365" opacity="0.82"></circle><circle r="1.5" cx="370" cy="327" opacity="0.82"></circle><circle r="1.5" cx="426" cy="325" opacity="0.81"></circle><circle r="1.5" cx="469" cy="360" opacity="0.81"></circle><circle r="1.5" cx="479" cy="416" opacity="0.81"></circle><circle r="1.5" cx="449" cy="465" opacity="0.81"></circle><circle r="1.5" cx="394" cy="482" opacity="0.81"></circle><circle r="1.5" cx="341" cy="458" opacity="0.81"></circle><circle r="1.5" cx="317" cy="405" opacity="0.80"></circle><circle r="1.5" cx="333" cy="348" opacity="0.80"></circle><circle r="1.5" cx="384" cy="317" opacity="0.80"></circle><circle r="1.5" cx="443" cy="326" opacity="0.80"></circle><circle r="1.5" cx="482" cy="373" opacity="0.80"></circle><circle r="1.5" cx="480" cy="434" opacity="0.79"></circle><circle r="1.5" cx="438" cy="479" opacity="0.79"></circle><circle r="1.5" cx="377" cy="485" opacity="0.79"></circle><circle r="1.5" cx="326" cy="449" opacity="0.79"></circle><circle r="1.5" cx="311" cy="388" opacity="0.79"></circle><circle r="1.5" cx="341" cy="331" opacity="0.79"></circle><circle r="1.5" cx="401" cy="309" opacity="0.78"></circle><circle r="1.5" cx="461" cy="331" opacity="0.78"></circle><circle r="1.5" cx="492" cy="388" opacity="0.78"></circle><circle r="1.5" cx="477" cy="452" opacity="0.78"></circle><circle r="1.5" cx="424" cy="491" opacity="0.78"></circle><circle r="1.5" cx="357" cy="485" opacity="0.77"></circle><circle r="1.5" cx="311" cy="436" opacity="0.77"></circle><circle r="1.5" cx="309" cy="368" opacity="0.77"></circle><circle r="1.5" cx="352" cy="316" opacity="0.77"></circle><circle r="1.5" cx="420" cy="304" opacity="0.77"></circle><circle r="1.5" cx="479" cy="341" opacity="0.77"></circle><circle r="1.5" cx="499" cy="407" opacity="0.76"></circle><circle r="1.5" cx="470" cy="471" opacity="0.76"></circle><circle r="1.5" cx="406" cy="501" opacity="0.76"></circle><circle r="1.5" cx="338" cy="480" opacity="0.76"></circle><circle r="1.5" cx="300" cy="419" opacity="0.76"></circle><circle r="1.5" cx="311" cy="348" opacity="0.75"></circle><circle r="1.5" cx="367" cy="302" opacity="0.75"></circle><circle r="1.5" cx="441" cy="304" opacity="0.75"></circle><circle r="2" cx="495" cy="354" opacity="0.75"></circle><circle r="2" cx="502" cy="428" opacity="0.75"></circle><circle r="2" cx="459" cy="489" opacity="0.75"></circle><circle r="2" cx="385" cy="506" opacity="0.74"></circle><circle r="2" cx="318" cy="471" opacity="0.74"></circle><circle r="2" cx="291" cy="399" opacity="0.74"></circle><circle r="2" cx="318" cy="327" opacity="0.74"></circle><circle r="2" cx="386" cy="291" opacity="0.74"></circle><circle r="2" cx="462" cy="308" opacity="0.73"></circle><circle r="2" cx="508" cy="372" opacity="0.73"></circle><circle r="2" cx="500" cy="450" opacity="0.73"></circle><circle r="2" cx="442" cy="505" opacity="0.73"></circle><circle r="2" cx="363" cy="507" opacity="0.73"></circle><circle r="2" cx="300" cy="456" opacity="0.73"></circle><circle r="2" cx="287" cy="377" opacity="0.72"></circle><circle r="2" cx="330" cy="308" opacity="0.72"></circle><circle r="2" cx="409" cy="284" opacity="0.72"></circle><circle r="2" cx="484" cy="318" opacity="0.72"></circle><circle r="2" cx="518" cy="393" opacity="0.72"></circle><circle r="2" cx="494" cy="473" opacity="0.71"></circle><circle r="2" cx="422" cy="517" opacity="0.71"></circle><circle r="2" cx="339" cy="504" opacity="0.71"></circle><circle r="2" cx="285" cy="438" opacity="0.71"></circle><circle r="2" cx="288" cy="353" opacity="0.71"></circle><circle r="2" cx="347" cy="290" opacity="0.71"></circle><circle r="2" cx="433" cy="281" opacity="0.70"></circle><circle r="2" cx="504" cy="332" opacity="0.70"></circle><circle r="2" cx="523" cy="417" opacity="0.70"></circle><circle r="2" cx="482" cy="495" opacity="0.70"></circle><circle r="2" cx="399" cy="526" opacity="0.70"></circle><circle r="2" cx="316" cy="495" opacity="0.69"></circle><circle r="2" cx="274" cy="416" opacity="0.69"></circle><circle r="2" cx="294" cy="328" opacity="0.69"></circle><circle r="2" cx="368" cy="275" opacity="0.69"></circle><circle r="2" cx="458" cy="284" opacity="0.69"></circle><circle r="2" cx="521" cy="351" opacity="0.69"></circle><circle r="2" cx="524" cy="443" opacity="0.68"></circle><circle r="2" cx="465" cy="515" opacity="0.68"></circle><circle r="2" cx="373" cy="530" opacity="0.68"></circle><circle r="2" cx="294" cy="480" opacity="0.68"></circle><circle r="2" cx="266" cy="390" opacity="0.68"></circle><circle r="2" cx="306" cy="304" opacity="0.68"></circle><circle r="2" cx="392" cy="265" opacity="0.67"></circle><circle r="2" cx="484" cy="293" opacity="0.67"></circle><circle r="2" cx="534" cy="375" opacity="0.67"></circle><circle r="2" cx="518" cy="470" opacity="0.67"></circle><circle r="2" cx="443" cy="531" opacity="0.67"></circle><circle r="2" cx="346" cy="528" opacity="0.66"></circle><circle r="2" cx="274" cy="461" opacity="0.66"></circle><circle r="2" cx="265" cy="362" opacity="0.66"></circle><circle r="2" cx="323" cy="282" opacity="0.66"></circle><circle r="2" cx="420" cy="260" opacity="0.66"></circle><circle r="2" cx="508" cy="307" opacity="0.66"></circle><circle r="2" cx="543" cy="401" opacity="0.65"></circle><circle r="2" cx="507" cy="496" opacity="0.65"></circle><circle r="2.5" cx="417" cy="544" opacity="0.65"></circle><circle r="2.5" cx="318" cy="520" opacity="0.65"></circle><circle r="2.5" cx="258" cy="436" opacity="0.65"></circle><circle r="2.5" cx="269" cy="334" opacity="0.64"></circle><circle r="2.5" cx="345" cy="263" opacity="0.64"></circle><circle r="2.5" cx="449" cy="260" opacity="0.64"></circle><circle r="2.5" cx="530" cy="327" opacity="0.64"></circle><circle r="2.5" cx="547" cy="431" opacity="0.64"></circle><circle r="2.5" cx="490" cy="520" opacity="0.64"></circle><circle r="2.5" cx="389" cy="551" opacity="0.63"></circle><circle r="2.5" cx="291" cy="506" opacity="0.63"></circle><circle r="2.5" cx="248" cy="408" opacity="0.63"></circle><circle r="2.5" cx="279" cy="305" opacity="0.63"></circle><circle r="2.5" cx="372" cy="249" opacity="0.63"></circle><circle r="2.5" cx="479" cy="267" opacity="0.62"></circle><circle r="2.5" cx="548" cy="352" opacity="0.62"></circle><circle r="2.5" cx="544" cy="461" opacity="0.62"></circle><circle r="2.5" cx="468" cy="541" opacity="0.62"></circle><circle r="2.5" cx="358" cy="552" opacity="0.62"></circle><circle r="2.5" cx="267" cy="487" opacity="0.62"></circle><circle r="2.5" cx="243" cy="377" opacity="0.61"></circle><circle r="2.5" cx="296" cy="279" opacity="0.61"></circle><circle r="2.5" cx="402" cy="239" opacity="0.61"></circle><circle r="2.5" cx="508" cy="280" opacity="0.61"></circle><circle r="2.5" cx="561" cy="381" opacity="0.61"></circle><circle r="2.5" cx="534" cy="492" opacity="0.60"></circle><circle r="2.5" cx="440" cy="558" opacity="0.60"></circle><circle r="2.5" cx="326" cy="546" opacity="0.60"></circle><circle r="2.5" cx="247" cy="461" opacity="0.60"></circle><circle r="2.5" cx="244" cy="345" opacity="0.60"></circle><circle r="2.5" cx="319" cy="255" opacity="0.60"></circle><circle r="2.5" cx="434" cy="237" opacity="0.59"></circle><circle r="2.5" cx="534" cy="299" opacity="0.59"></circle><circle r="2.5" cx="568" cy="413" opacity="0.59"></circle><circle r="2.5" cx="518" cy="521" opacity="0.59"></circle><circle r="2.5" cx="409" cy="570" opacity="0.59"></circle><circle r="2.5" cx="295" cy="534" opacity="0.58"></circle><circle r="2.5" cx="232" cy="431" opacity="0.58"></circle><circle r="2.5" cx="252" cy="312" opacity="0.58"></circle><circle r="2.5" cx="346" cy="236" opacity="0.58"></circle><circle r="2.5" cx="468" cy="241" opacity="0.58"></circle><circle r="2.5" cx="557" cy="325" opacity="0.58"></circle><circle r="2.5" cx="568" cy="447" opacity="0.57"></circle><circle r="2.5" cx="496" cy="547" opacity="0.57"></circle><circle r="2.5" cx="375" cy="575" opacity="0.57"></circle><circle r="2.5" cx="265" cy="515" opacity="0.57"></circle><circle r="2.5" cx="222" cy="398" opacity="0.57"></circle><circle r="2.5" cx="267" cy="281" opacity="0.56"></circle><circle r="2.5" cx="379" cy="222" opacity="0.56"></circle><circle r="2.5" cx="502" cy="252" opacity="0.56"></circle><circle r="2.5" cx="575" cy="355" opacity="0.56"></circle><circle r="2.5" cx="562" cy="482" opacity="0.56"></circle><circle r="2.5" cx="468" cy="569" opacity="0.56"></circle><circle r="2.5" cx="339" cy="572" opacity="0.55"></circle><circle r="2.5" cx="240" cy="490" opacity="0.55"></circle><circle r="2.5" cx="220" cy="362" opacity="0.55"></circle><circle r="3" cx="289" cy="252" opacity="0.55"></circle><circle r="3" cx="415" cy="215" opacity="0.55"></circle><circle r="3" cx="534" cy="270" opacity="0.55"></circle><circle r="3" cx="587" cy="390" opacity="0.54"></circle><circle r="3" cx="548" cy="516" opacity="0.54"></circle><circle r="3" cx="434" cy="585" opacity="0.54"></circle><circle r="3" cx="303" cy="563" opacity="0.54"></circle><circle r="3" cx="219" cy="459" opacity="0.54"></circle><circle r="3" cx="225" cy="325" opacity="0.53"></circle><circle r="3" cx="318" cy="227" opacity="0.53"></circle><circle r="3" cx="452" cy="215" opacity="0.53"></circle><circle r="3" cx="562" cy="295" opacity="0.53"></circle><circle r="3" cx="592" cy="428" opacity="0.53"></circle><circle r="3" cx="526" cy="548" opacity="0.53"></circle><circle r="3" cx="397" cy="595" opacity="0.52"></circle><circle r="3" cx="269" cy="545" opacity="0.52"></circle><circle r="3" cx="205" cy="423" opacity="0.52"></circle><circle r="3" cx="238" cy="288" opacity="0.52"></circle><circle r="3" cx="351" cy="208" opacity="0.52"></circle><circle r="3" cx="490" cy="223" opacity="0.51"></circle><circle r="3" cx="585" cy="326" opacity="0.51"></circle><circle r="3" cx="589" cy="467" opacity="0.51"></circle><circle r="3" cx="498" cy="575" opacity="0.51"></circle><circle r="3" cx="358" cy="597" opacity="0.51"></circle><circle r="3" cx="238" cy="521" opacity="0.51"></circle><circle r="3" cx="198" cy="384" opacity="0.50"></circle><circle r="3" cx="258" cy="254" opacity="0.50"></circle><circle r="3" cx="390" cy="196" opacity="0.50"></circle><circle r="3" cx="527" cy="239" opacity="0.50"></circle><circle r="3" cx="602" cy="363" opacity="0.50"></circle><circle r="3" cx="577" cy="506" opacity="0.49"></circle><circle r="3" cx="464" cy="597" opacity="0.49"></circle><circle r="3" cx="318" cy="591" opacity="0.49"></circle><circle r="3" cx="211" cy="490" opacity="0.49"></circle><circle r="3" cx="198" cy="343" opacity="0.49"></circle><circle r="3" cx="286" cy="224" opacity="0.49"></circle><circle r="3" cx="431" cy="191" opacity="0.48"></circle><circle r="3" cx="561" cy="263" opacity="0.48"></circle><circle r="3" cx="612" cy="403" opacity="0.48"></circle><circle r="3" cx="558" cy="543" opacity="0.48"></circle><circle r="3" cx="425" cy="612" opacity="0.48"></circle><circle r="3" cx="278" cy="577" opacity="0.47"></circle><circle r="3" cx="191" cy="453" opacity="0.47"></circle><circle r="3" cx="208" cy="302" opacity="0.47"></circle><circle r="3" cx="320" cy="199" opacity="0.47"></circle><circle r="3" cx="473" cy="195" opacity="0.47"></circle><circle r="3" cx="591" cy="294" opacity="0.47"></circle><circle r="3" cx="614" cy="446" opacity="0.46"></circle><circle r="3" cx="531" cy="576" opacity="0.46"></circle><circle r="3" cx="382" cy="620" opacity="0.46"></circle><circle r="3" cx="241" cy="554" opacity="0.46"></circle><circle r="3" cx="179" cy="411" opacity="0.46"></circle><circle r="3" cx="226" cy="262" opacity="0.45"></circle><circle r="3" cx="360" cy="180" opacity="0.45"></circle><circle r="3" cx="515" cy="208" opacity="0.45"></circle><circle r="3.5" cx="614" cy="331" opacity="0.45"></circle><circle r="3.5" cx="607" cy="490" opacity="0.45"></circle><circle r="3.5" cx="497" cy="604" opacity="0.45"></circle><circle r="3.5" cx="338" cy="618" opacity="0.44"></circle><circle r="3.5" cx="209" cy="523" opacity="0.44"></circle><circle r="3.5" cx="174" cy="367" opacity="0.44"></circle><circle r="3.5" cx="252" cy="225" opacity="0.44"></circle><circle r="3.5" cx="404" cy="170" opacity="0.44"></circle><circle r="3.5" cx="555" cy="229" opacity="0.43"></circle><circle r="3.5" cx="630" cy="374" opacity="0.43"></circle><circle r="3.5" cx="591" cy="532" opacity="0.43"></circle><circle r="3.5" cx="457" cy="626" opacity="0.43"></circle><circle r="3.5" cx="293" cy="607" opacity="0.43"></circle><circle r="3.5" cx="182" cy="486" opacity="0.43"></circle><circle r="3.5" cx="179" cy="321" opacity="0.42"></circle><circle r="3.5" cx="286" cy="194" opacity="0.42"></circle><circle r="3.5" cx="450" cy="169" opacity="0.42"></circle><circle r="3.5" cx="590" cy="259" opacity="0.42"></circle><circle r="3.5" cx="637" cy="419" opacity="0.42"></circle><circle r="3.5" cx="566" cy="571" opacity="0.42"></circle><circle r="3.5" cx="412" cy="639" opacity="0.41"></circle><circle r="3.5" cx="251" cy="588" opacity="0.41"></circle><circle r="3.5" cx="163" cy="443" opacity="0.41"></circle><circle r="3.5" cx="193" cy="276" opacity="0.41"></circle><circle r="3.5" cx="326" cy="170" opacity="0.41"></circle><circle r="3.5" cx="497" cy="177" opacity="0.40"></circle><circle r="3.5" cx="620" cy="296" opacity="0.40"></circle><circle r="3.5" cx="635" cy="467" opacity="0.40"></circle><circle r="3.5" cx="532" cy="606" opacity="0.40"></circle><circle r="3.5" cx="364" cy="643" opacity="0.40"></circle><circle r="3.5" cx="212" cy="559" opacity="0.40"></circle><circle r="3.5" cx="153" cy="396" opacity="0.39"></circle><circle r="3.5" cx="217" cy="234" opacity="0.39"></circle><circle r="3.5" cx="372" cy="153" opacity="0.39"></circle><circle r="3.5" cx="542" cy="195" opacity="0.39"></circle><circle r="3.5" cx="642" cy="340" opacity="0.39"></circle><circle r="3.5" cx="623" cy="515" opacity="0.38"></circle><circle r="3.5" cx="492" cy="634" opacity="0.38"></circle><circle r="3.5" cx="315" cy="637" opacity="0.38"></circle><circle r="3.5" cx="179" cy="522" opacity="0.38"></circle><circle r="3.5" cx="152" cy="346" opacity="0.38"></circle><circle r="3.5" cx="249" cy="196" opacity="0.38"></circle><circle r="3.5" cx="421" cy="146" opacity="0.37"></circle><circle r="3.5" cx="584" cy="223" opacity="0.37"></circle><circle r="3.5" cx="656" cy="388" opacity="0.37"></circle><circle r="3.5" cx="601" cy="560" opacity="0.37"></circle><circle r="3.5" cx="446" cy="654" opacity="0.37"></circle><circle r="3.5" cx="267" cy="621" opacity="0.36"></circle><circle r="3.5" cx="153" cy="479" opacity="0.36"></circle><circle r="3.5" cx="162" cy="296" opacity="0.36"></circle><circle r="3.5" cx="289" cy="164" opacity="0.36"></circle><circle r="3.5" cx="472" cy="149" opacity="0.36"></circle><circle r="3.5" cx="621" cy="258" opacity="0.36"></circle><circle r="3.5" cx="660" cy="439" opacity="0.35"></circle><circle r="3.5" cx="570" cy="601" opacity="0.35"></circle><circle r="3.5" cx="395" cy="664" opacity="0.35"></circle><circle r="4" cx="222" cy="596" opacity="0.35"></circle><circle r="4" cx="136" cy="430" opacity="0.35"></circle><circle r="4" cx="181" cy="248" opacity="0.34"></circle><circle r="4" cx="336" cy="141" opacity="0.34"></circle><circle r="4" cx="523" cy="162" opacity="0.34"></circle><circle r="4" cx="650" cy="302" opacity="0.34"></circle><circle r="4" cx="653" cy="491" opacity="0.34"></circle><circle r="4" cx="531" cy="636" opacity="0.34"></circle><circle r="4" cx="342" cy="664" opacity="0.33"></circle><circle r="4" cx="182" cy="561" opacity="0.33"></circle><circle r="4" cx="129" cy="377" opacity="0.33"></circle><circle r="4" cx="211" cy="203" opacity="0.33"></circle><circle r="4" cx="387" cy="127" opacity="0.33"></circle><circle r="4" cx="571" cy="186" opacity="0.32"></circle><circle r="4" cx="671" cy="352" opacity="0.32"></circle><circle r="4" cx="636" cy="542" opacity="0.32"></circle><circle r="4" cx="484" cy="663" opacity="0.32"></circle><circle r="4" cx="289" cy="654" opacity="0.32"></circle><circle r="4" cx="148" cy="518" opacity="0.32"></circle><circle r="4" cx="132" cy="323" opacity="0.31"></circle><circle r="4" cx="249" cy="165" opacity="0.31"></circle><circle r="4" cx="442" cy="123" opacity="0.31"></circle><circle r="4" cx="615" cy="219" opacity="0.31"></circle><circle r="4" cx="681" cy="406" opacity="0.31"></circle><circle r="4" cx="608" cy="590" opacity="0.30"></circle><circle r="4" cx="431" cy="681" opacity="0.30"></circle><circle r="4" cx="238" cy="633" opacity="0.30"></circle><circle r="4" cx="124" cy="468" opacity="0.30"></circle><circle r="4" cx="147" cy="269" opacity="0.30"></circle><circle r="4" cx="296" cy="134" opacity="0.30"></circle><circle r="4" cx="498" cy="131" opacity="0.29"></circle><circle r="4" cx="652" cy="261" opacity="0.29"></circle><circle r="4" cx="681" cy="462" opacity="0.29"></circle><circle r="4" cx="571" cy="633" opacity="0.29"></circle><circle r="4" cx="375" cy="688" opacity="0.29"></circle><circle r="4" cx="191" cy="601" opacity="0.29"></circle><circle r="4" cx="109" cy="413" opacity="0.28"></circle><circle r="4" cx="172" cy="218" opacity="0.28"></circle><circle r="4" cx="349" cy="112" opacity="0.28"></circle><circle r="4" cx="552" cy="149" opacity="0.28"></circle><circle r="4" cx="680" cy="311" opacity="0.28"></circle><circle r="4" cx="670" cy="518" opacity="0.27"></circle><circle r="4" cx="525" cy="667" opacity="0.27"></circle><circle r="4" cx="317" cy="684" opacity="0.27"></circle><circle r="4" cx="150" cy="560" opacity="0.27"></circle><circle r="4" cx="106" cy="355" opacity="0.27"></circle><circle r="4" cx="208" cy="172" opacity="0.27"></circle><circle r="4" cx="406" cy="101" opacity="0.26"></circle><circle r="4" cx="602" cy="179" opacity="0.26"></circle><circle r="4" cx="698" cy="367" opacity="0.26"></circle><circle r="4" cx="647" cy="572" opacity="0.26"></circle><circle r="4" cx="472" cy="693" opacity="0.26"></circle><circle r="4" cx="261" cy="668" opacity="0.25"></circle><circle r="4" cx="118" cy="510" opacity="0.25"></circle><circle r="4" cx="114" cy="296" opacity="0.25"></circle><circle r="4.5" cx="253" cy="133" opacity="0.25"></circle><circle r="4.5" cx="466" cy="102" opacity="0.25"></circle><circle r="4.5" cx="647" cy="219" opacity="0.25"></circle><circle r="4.5" cx="706" cy="427" opacity="0.24"></circle><circle r="4.5" cx="613" cy="622" opacity="0.24"></circle><circle r="4.5" cx="413" cy="708" opacity="0.24"></circle><circle r="4.5" cx="207" cy="641" opacity="0.24"></circle><circle r="4.5" cx="95" cy="454" opacity="0.24"></circle><circle r="4.5" cx="135" cy="239" opacity="0.23"></circle><circle r="4.5" cx="307" cy="103" opacity="0.23"></circle><circle r="4.5" cx="526" cy="115" opacity="0.23"></circle><circle r="4.5" cx="683" cy="268" opacity="0.23"></circle><circle r="4.5" cx="701" cy="488" opacity="0.23"></circle><circle r="4.5" cx="569" cy="665" opacity="0.23"></circle><circle r="4.5" cx="352" cy="711" opacity="0.22"></circle><circle r="4.5" cx="158" cy="603" opacity="0.22"></circle><circle r="4.5" cx="84" cy="393" opacity="0.22"></circle><circle r="4.5" cx="167" cy="186" opacity="0.22"></circle><circle r="4.5" cx="366" cy="84" opacity="0.22"></circle><circle r="4.5" cx="583" cy="139" opacity="0.21"></circle><circle r="4.5" cx="710" cy="324" opacity="0.21"></circle><circle r="4.5" cx="683" cy="548" opacity="0.21"></circle><circle r="4.5" cx="516" cy="699" opacity="0.21"></circle><circle r="4.5" cx="290" cy="702" opacity="0.21"></circle><circle r="4.5" cx="118" cy="555" opacity="0.21"></circle><circle r="4.5" cx="85" cy="330" opacity="0.20"></circle><circle r="4.5" cx="209" cy="139" opacity="0.20"></circle><circle r="4.5" cx="429" cy="77" opacity="0.20"></circle><circle r="4.5" cx="635" cy="176" opacity="0.20"></circle><circle r="4.5" cx="725" cy="386" opacity="0.20"></circle><circle r="4.5" cx="654" cy="604" opacity="0.19"></circle><circle r="4.5" cx="456" cy="722" opacity="0.19"></circle><circle r="4.5" cx="230" cy="680" opacity="0.19"></circle><circle r="4.5" cx="87" cy="498" opacity="0.19"></circle><circle r="4.5" cx="99" cy="267" opacity="0.19"></circle><circle r="4.5" cx="261" cy="101" opacity="0.19"></circle><circle r="4.5" cx="493" cy="83" opacity="0.18"></circle><circle r="4.5" cx="680" cy="223" opacity="0.18"></circle><circle r="4.5" cx="728" cy="451" opacity="0.18"></circle><circle r="4.5" cx="613" cy="655" opacity="0.18"></circle><circle r="4.5" cx="392" cy="733" opacity="0.18"></circle><circle r="4.5" cx="174" cy="646" opacity="0.17"></circle><circle r="4.5" cx="67" cy="436" opacity="0.17"></circle><circle r="4.5" cx="126" cy="207" opacity="0.17"></circle><circle r="4.5" cx="321" cy="73" opacity="0.17"></circle><circle r="4.5" cx="556" cy="101" opacity="0.17"></circle><circle r="4.5" cx="715" cy="278" opacity="0.17"></circle><circle r="4.5" cx="718" cy="516" opacity="0.16"></circle><circle r="4.5" cx="562" cy="698" opacity="0.16"></circle><circle r="4.5" cx="326" cy="732" opacity="0.16"></circle><circle r="4.5" cx="125" cy="601" opacity="0.16"></circle><circle r="4.5" cx="60" cy="369" opacity="0.16"></circle><circle r="4.5" cx="164" cy="152" opacity="0.16"></circle><circle r="4.5" cx="386" cy="58" opacity="0.15"></circle><circle r="4.5" cx="616" cy="133" opacity="0.15"></circle><circle r="5" cx="739" cy="341" opacity="0.15"></circle><circle r="5" cx="694" cy="580" opacity="0.15"></circle><circle r="5" cx="503" cy="730" opacity="0.15"></circle><circle r="5" cx="260" cy="717" opacity="0.14"></circle><circle r="5" cx="85" cy="546" opacity="0.14"></circle><circle r="5" cx="66" cy="302" opacity="0.14"></circle><circle r="5" cx="214" cy="106" opacity="0.14"></circle><circle r="5" cx="454" cy="55" opacity="0.14"></circle><circle r="5" cx="669" cy="176" opacity="0.14"></circle><circle r="5" cx="750" cy="409" opacity="0.13"></circle><circle r="5" cx="658" cy="638" opacity="0.13"></circle><circle r="5" cx="437" cy="750" opacity="0.13"></circle><circle r="5" cx="197" cy="688" opacity="0.13"></circle><circle r="5" cx="56" cy="483" opacity="0.13"></circle><circle r="5" cx="86" cy="235" opacity="0.12"></circle><circle r="5" cx="272" cy="69" opacity="0.12"></circle><circle r="5" cx="523" cy="66" opacity="0.12"></circle><circle r="5" cx="713" cy="230" opacity="0.12"></circle><circle r="5" cx="748" cy="478" opacity="0.12"></circle><circle r="5" cx="611" cy="689" opacity="0.12"></circle><circle r="5" cx="367" cy="757" opacity="0.11"></circle><circle r="5" cx="140" cy="647" opacity="0.11"></circle><circle r="5" cx="40" cy="414" opacity="0.11"></circle><circle r="5" cx="120" cy="173" opacity="0.11"></circle><circle r="5" cx="339" cy="44" opacity="0.11"></circle><circle r="5" cx="589" cy="91" opacity="0.10"></circle><circle r="5" cx="746" cy="292" opacity="0.10"></circle><circle r="5" cx="732" cy="548" opacity="0.10"></circle></g></svg>