<svg xmlns="http://www.w3.org/2000/svg" version="1.1" xmlns:xlink="http://www.w3.org/1999/xlink" xmlns:svgjs="http://svgjs.dev/svgjs" viewBox="0 0 800 800" opacity="0.27"><defs><linearGradient x1="50%" y1="0%" x2="50%" y2="100%" id="vvvortex-grad"><stop stop-color="hsl(180, 69%, 40%)" stop-opacity="1" offset="0%"></stop><stop stop-color="hsl(180, 69%, 60%)" stop-opacity="1" offset="100%"></stop></linearGradient></defs><g stroke="url(#vvvortex-grad)" fill="none" stroke-linecap="round"><circle r="379.5" cx="400" cy="400" stroke-width="9" stroke-dasharray="31 39" stroke-dashoffset="25" transform="rotate(251, 400, 400)" opacity="0.05"></circle><circle r="363" cx="400" cy="400" stroke-width="8" stroke-dasharray="39 11" stroke-dashoffset="25" transform="rotate(72, 400, 400)" opacity="0.09"></circle><circle r="346.5" cx="400" cy="400" stroke-width="8" stroke-dasharray="34 30" stroke-dashoffset="25" transform="rotate(9, 400, 400)" opacity="0.14"></circle><circle r="330" cx="400" cy="400" stroke-width="8" stroke-dasharray="18 34" stroke-dashoffset="25" transform="rotate(323, 400, 400)" opacity="0.18"></circle><circle r="313.5" cx="400" cy="400" stroke-width="7" stroke-dasharray="30 34" stroke-dashoffset="25" transform="rotate(236, 400, 400)" opacity="0.22"></circle><circle r="297" cx="400" cy="400" stroke-width="7" stroke-dasharray="29 22" stroke-dashoffset="25" transform="rotate(345, 400, 400)" opacity="0.27"></circle><circle r="280.5" cx="400" cy="400" stroke-width="7" stroke-dasharray="33 45" stroke-dashoffset="25" transform="rotate(241, 400, 400)" opacity="0.31"></circle><circle r="264" cx="400" cy="400" stroke-width="7" stroke-dasharray="19 33" stroke-dashoffset="25" transform="rotate(178, 400, 400)" opacity="0.35"></circle><circle r="247.5" cx="400" cy="400" stroke-width="6" stroke-dasharray="12 36" stroke-dashoffset="25" transform="rotate(135, 400, 400)" opacity="0.40"></circle><circle r="231" cx="400" cy="400" stroke-width="6" stroke-dasharray="28 38" stroke-dashoffset="25" transform="rotate(205, 400, 400)" opacity="0.44"></circle><circle r="214.5" cx="400" cy="400" stroke-width="6" stroke-dasharray="49 19" stroke-dashoffset="25" transform="rotate(234, 400, 400)" opacity="0.48"></circle><circle r="198" cx="400" cy="400" stroke-width="6" stroke-dasharray="11 24" stroke-dashoffset="25" transform="rotate(265, 400, 400)" opacity="0.53"></circle><circle r="181.5" cx="400" cy="400" stroke-width="5" stroke-dasharray="31 16" stroke-dashoffset="25" transform="rotate(319, 400, 400)" opacity="0.57"></circle><circle r="165" cx="400" cy="400" stroke-width="5" stroke-dasharray="23 27" stroke-dashoffset="25" transform="rotate(66, 400, 400)" opacity="0.61"></circle><circle r="148.5" cx="400" cy="400" stroke-width="5" stroke-dasharray="37 50" stroke-dashoffset="25" transform="rotate(347, 400, 400)" opacity="0.65"></circle><circle r="132" cx="400" cy="400" stroke-width="4" stroke-dasharray="45 39" stroke-dashoffset="25" transform="rotate(340, 400, 400)" opacity="0.70"></circle><circle r="115.5" cx="400" cy="400" stroke-width="4" stroke-dasharray="14 40" stroke-dashoffset="25" transform="rotate(330, 400, 400)" opacity="0.74"></circle><circle r="99" cx="400" cy="400" stroke-width="4" stroke-dasharray="15 17" stroke-dashoffset="25" transform="rotate(14, 400, 400)" opacity="0.78"></circle><circle r="82.5" cx="400" cy="400" stroke-width="4" stroke-dasharray="46 14" stroke-dashoffset="25" transform="rotate(219, 400, 400)" opacity="0.83"></circle><circle r="66" cx="400" cy="400" stroke-width="3" stroke-dasharray="30 31" stroke-dashoffset="25" transform="rotate(231, 400, 400)" opacity="0.87"></circle><circle r="49.5" cx="400" cy="400" stroke-width="3" stroke-dasharray="52 42" stroke-dashoffset="25" transform="rotate(247, 400, 400)" opacity="0.91"></circle><circle r="33" cx="400" cy="400" stroke-width="3" stroke-dasharray="33 41" stroke-dashoffset="25" transform="rotate(337, 400, 400)" opacity="0.96"></circle><circle r="16.5" cx="400" cy="400" stroke-width="3" stroke-dasharray="52 45" stroke-dashoffset="25" transform="rotate(344, 400, 400)" opacity="1.00"></circle></g></svg>